<svg id="Capa_1" enable-background="new 0 0 512.002 512.002" height="512" viewBox="0 0 512.002 512.002" width="512" xmlns="http://www.w3.org/2000/svg"><path clip-rule="evenodd" d="m334.366 160.304-19.453-34.353c-5.247-10.065-19.753-10.605-25.589-.555l-20.754 35.649-39.186 7.998c-10.896 2.213-15.518 15.555-7.953 24.014l27.474 30.735-4.464 39.303c-1.663 11.186 9.753 20.19 20.359 15.521l37.8-16.667 35.889 16.34c10.856 5.19 22.158-3.499 21.06-14.487l-4.174-41.133 26.145-28.553c9.4-9.398 3.734-22.804-6.8-25.081z" fill="#ffc144" fill-rule="evenodd"/><path clip-rule="evenodd" d="m181.812 330.184c-32.627-32.628-52.808-77.706-52.808-127.498 0-34.731 9.749-67.093 26.645-94.495 17.518-28.411 42.722-51.608 72.723-66.707l-.005-.009c6.284-3.167 10.093-10.131 8.931-17.452-1.439-9.068-9.957-15.252-19.025-13.813-59.471 9.475-111.856 40.097-149.185 83.903-36.847 43.239-59.088 99.255-59.088 160.412 0 68.336 27.7 130.206 72.483 174.991 44.784 44.784 106.651 72.484 174.986 72.484 61.156 0 117.169-22.241 160.408-59.089 43.6-37.155 74.136-89.227 83.763-148.354 1.528-7.209-1.899-14.822-8.788-18.297-8.204-4.138-18.21-.842-22.348 7.362-15.099 30.002-38.295 55.207-66.705 72.725-27.402 16.896-59.763 26.645-94.493 26.645-49.79.001-94.867-20.18-127.494-52.808z" fill="#88df8e" fill-rule="evenodd"/><path d="m497.356 267.333c-6.353-3.205-13.574-3.744-20.332-1.517-6.758 2.226-12.244 6.951-15.453 13.312-14.249 28.313-36.041 52.072-63.021 68.708-26.691 16.458-57.551 25.157-89.244 25.157-45.491 0-88.258-17.715-120.423-49.881s-49.879-74.934-49.879-120.426c0-31.694 8.699-62.556 25.156-89.247 16.636-26.981 40.394-48.774 68.707-63.023.174-.088.345-.18.512-.276 10.057-5.339 15.588-16.39 13.795-27.686-2.302-14.499-15.974-24.423-30.475-22.121-22.369 3.564-44.179 10.084-64.825 19.377-5.036 2.267-7.281 8.188-5.014 13.224s8.187 7.281 13.224 5.014c19.033-8.567 39.14-14.578 59.756-17.862 3.607-.573 7.008 1.897 7.581 5.505.454 2.859-.975 5.654-3.555 6.955-.138.069-.273.142-.407.216-31.439 15.919-57.824 40.179-76.323 70.181-18.404 29.849-28.132 64.34-28.132 99.744 0 50.834 19.794 98.625 55.737 134.568 35.942 35.944 83.732 55.739 134.565 55.739 35.403 0 69.893-9.728 99.741-28.133 30.135-18.582 54.475-45.118 70.386-76.734.798-1.583 2.166-2.76 3.849-3.315 1.685-.555 3.482-.421 5.066.378 2.689 1.356 4.132 4.355 3.509 7.293-.033.155-.062.311-.087.467-9.004 55.298-37.55 105.852-80.378 142.35-42.907 36.563-97.571 56.7-153.923 56.7-63.429 0-123.062-24.702-167.915-69.556-44.852-44.854-69.554-104.489-69.554-167.919 0-56.354 20.136-111.02 56.699-153.927 4.001-4.697 8.257-9.311 12.649-13.714 3.9-3.911 3.891-10.243-.02-14.143-3.909-3.898-10.241-3.891-14.142.02-4.759 4.772-9.372 9.774-13.71 14.866-39.643 46.522-61.476 105.793-61.476 166.898 0 68.772 26.782 133.43 75.412 182.062s113.286 75.414 182.057 75.414c61.102 0 120.373-21.833 166.895-61.478 46.378-39.523 77.31-94.259 87.112-154.148 2.366-11.728-3.413-23.642-14.12-29.042z"/><path d="m208.973 175.62c-2.805 8.453-.934 17.464 5.002 24.102l24.487 27.394-3.941 34.701c-1.233 8.773 2.395 17.564 9.497 22.984 4.413 3.367 9.588 5.092 14.842 5.092 3.352 0 6.736-.702 9.974-2.128l33.7-14.859 31.733 14.448c8.249 3.905 17.538 3.168 24.869-1.979 7.272-5.107 11.244-13.754 10.361-22.583l-3.722-36.675 22.984-25.102c6.641-6.752 9.086-15.915 6.542-24.56-2.56-8.697-9.637-15.286-18.47-17.195l-35.975-7.782-17.17-30.323c-4.165-7.835-12.265-12.82-21.189-13.023-9.119-.228-17.251 4.37-21.817 12.233l-18.5 31.779-34.789 7.1c-8.717 1.77-15.603 7.892-18.418 16.376zm18.983 6.299c.255-.768 1.098-2.604 3.428-3.078l39.187-7.997c2.792-.57 5.209-2.304 6.643-4.767l20.759-35.659c1.146-1.973 2.926-2.293 3.958-2.293.039 0 .077 0 .114.001.83.019 2.88.295 4.001 2.447.054.103.109.204.166.305l19.453 34.353c1.404 2.481 3.801 4.244 6.587 4.847l40.355 8.73c1.648.356 3.026 1.649 3.51 3.293.494 1.679-.067 3.341-1.667 4.942-.104.104-.206.21-.305.318l-26.145 28.553c-1.925 2.103-2.861 4.927-2.574 7.763l4.173 41.118c.246 2.461-1.435 3.846-1.956 4.211-.995.699-2.644 1.31-4.841.259-.056-.027-.113-.053-.17-.079l-35.889-16.34c-2.595-1.181-5.569-1.199-8.178-.049l-37.795 16.665c-2.144.942-3.814.053-4.619-.562-.665-.508-2.174-1.947-1.819-4.336.017-.114.032-.228.045-.342l4.463-39.302c.322-2.833-.581-5.667-2.48-7.793l-27.475-30.736c-1.531-1.713-1.239-3.537-.929-4.472z"/><path d="m116.796 60.962c5.523 0 10-4.477 10-10s-4.477-10-10-10h-.007c-5.523 0-9.996 4.477-9.996 10s4.48 10 10.003 10z"/></svg>