<svg id="Layer_1" enable-background="new 0 0 511.605 511.605" height="512" viewBox="0 0 511.605 511.605" width="512" xmlns="http://www.w3.org/2000/svg"><g><g><path d="m315.752 511.605h-30.114c-3.484 0-6.859-1.213-9.546-3.43l-13.163-10.86-31.786 13.151c-1.818.752-3.767 1.14-5.734 1.14h-30.114c-5 0-9.67-2.491-12.456-6.643-2.786-4.151-3.319-9.418-1.424-14.044l60.229-147c2.308-5.633 7.792-9.313 13.88-9.313s11.572 3.68 13.88 9.313l60.229 147c1.895 4.626 1.361 9.893-1.424 14.044-2.786 4.151-7.457 6.642-12.457 6.642z" fill="#ff8856"/></g><path d="m329.633 490.918-60.229-147c-2.273-5.547-7.625-9.2-13.601-9.31v165.655l7.127-2.949 13.163 10.86c2.687 2.217 6.062 3.43 9.546 3.43h30.114c5 0 9.67-2.491 12.456-6.643 2.785-4.15 3.319-9.417 1.424-14.043z" fill="#ff435b"/><ellipse cx="255.762" cy="38.509" fill="#ffd321" rx="38.509" ry="38.509" transform="matrix(.973 -.23 .23 .973 -2.006 59.792)"/><circle cx="256.072" cy="342.776" fill="#ffd321" r="38.509"/><ellipse cx="180.33" cy="53.062" fill="#ff9d21" rx="38.509" ry="38.509" transform="matrix(.987 -.16 .16 .987 -6.171 29.571)"/><circle cx="124.351" cy="104.882" fill="#ffd321" r="38.509"/><circle cx="108.547" cy="179.977" fill="#ff9d21" r="38.509"/><circle cx="134.712" cy="251.778" fill="#ffd321" r="38.509"/><circle cx="186.128" cy="309.893" fill="#ff9d21" r="38.509"/><ellipse cx="331.275" cy="53.062" fill="#ff7d43" rx="38.509" ry="38.509" transform="matrix(.383 -.924 .924 .383 155.479 338.814)"/><circle cx="387.254" cy="104.882" fill="#ff9d21" r="38.509"/><circle cx="403.058" cy="179.977" fill="#ff7d43" r="38.509"/><circle cx="376.893" cy="251.778" fill="#ff9d21" r="38.509"/><circle cx="325.477" cy="309.893" fill="#ff7d43" r="38.509"/><g fill="#ff9d21"><path d="m255.802 0v77.018c21.216-.022 38.469-17.288 38.469-38.509s-17.253-38.487-38.469-38.509z"/><path d="m256.072 304.267c-.09 0-.179.001-.269.002v77.015c.09.001.179.002.269.002 21.234 0 38.509-17.275 38.509-38.509s-17.276-38.51-38.509-38.51z"/></g></g></svg>