<svg id="Capa_1" enable-background="new 0 0 512 512" height="512" viewBox="0 0 512 512" width="512" xmlns="http://www.w3.org/2000/svg"><g><g><path d="m293.217 138.536c14.501 8.452 32.509 6.981 44.171-5.887 7.989-8.815 19.682-11.18 29.001-17.989 10.724-7.835 18.339-20.899 19.872-34.092 1.31-11.262-2.31-22.995 1.362-34.102 5.934-17.951-4.025-33.657-16.528-41.259-.08-.048-.159-.095-.24-.14-12.776-7.133-31.35-8.06-44.046 5.951-8.136 8.976-19.526 11.066-29.003 17.99-10.724 7.835-18.339 20.898-19.871 34.091-1.335 11.491 2.37 22.819-1.362 34.102-6.058 18.322 3.994 33.962 16.644 41.335zm-2.415-36.63c2.903-8.78 3.192-16.747 2.355-25.834-.373-4.055-.726-7.885-.336-11.243 1.05-9.04 6.477-18.35 13.826-23.719 7.051-5.151 16.056-7.102 23.09-12.439 7.284-5.527 12.006-13.646 22.091-13.646 13.299 0 26.114 12.972 21.563 26.738-1.471 4.449-2.369 9.054-2.661 13.731-.485 7.762 1.543 15.599.643 23.345-1.051 9.04-6.478 18.351-13.826 23.719-5.303 3.875-11.617 5.877-17.385 8.904-5.429 2.848-9.783 6.6-13.882 11.123-7.823 8.634-18.635 7.013-25.516 3.002-6.88-4.01-13.618-12.619-9.962-23.681z"/><path d="m326.05 62.075c1.192 0 2.401-.285 3.526-.886 6.482-3.464 12.055-8.532 16.117-14.656 2.288-3.449 1.347-8.1-2.103-10.387-3.449-2.289-8.1-1.346-10.387 2.103-2.695 4.062-6.391 7.424-10.691 9.722-3.65 1.951-5.028 6.491-3.077 10.142 1.35 2.524 3.939 3.962 6.615 3.962z"/><path d="m341.114 77.909c-3.979-1.148-8.131 1.146-9.278 5.122-1.625 5.631-4.709 10.762-8.92 14.84-2.973 2.879-3.049 7.624-.17 10.597 1.47 1.518 3.426 2.281 5.384 2.281 1.877 0 3.757-.702 5.212-2.111 6.086-5.894 10.545-13.312 12.894-21.451 1.148-3.976-1.146-8.13-5.122-9.278z"/><path d="m209.733 207.924c1.374 0 2.764-.378 4.01-1.169 6.204-3.94 11.381-9.411 14.973-15.822 2.023-3.611.736-8.178-2.875-10.201-3.612-2.024-8.179-.736-10.201 2.875-2.383 4.253-5.818 7.882-9.933 10.496-3.494 2.219-4.527 6.85-2.308 10.344 1.429 2.247 3.855 3.477 6.334 3.477z"/><path d="m103.372 217.129c-.06 4.138 3.247 7.542 7.386 7.6.037.001.073.001.109.001 4.089 0 7.433-3.285 7.491-7.387.105-7.348-1.633-14.677-5.026-21.196-1.911-3.67-6.437-5.097-10.108-3.187-3.671 1.911-5.099 6.437-3.187 10.108 2.252 4.324 3.405 9.187 3.335 14.061z"/><path d="m296.286 227.62c.227 0 .456-.01.686-.031 7.319-.665 14.427-3.16 20.554-7.217 3.451-2.285 4.396-6.934 2.111-10.386-2.285-3.451-6.934-4.395-10.386-2.111-4.064 2.691-8.779 4.346-13.635 4.787-4.122.374-7.16 4.019-6.786 8.141.355 3.892 3.624 6.817 7.456 6.817z"/><path d="m357.369 202.384c-3.671 1.911-5.099 6.437-3.187 10.108 2.251 4.324 3.404 9.187 3.335 14.062-.059 4.139 3.248 7.541 7.386 7.6.037 0 .073.001.109.001 4.089 0 7.433-3.286 7.491-7.387.105-7.349-1.633-14.678-5.026-21.196-1.912-3.672-6.437-5.099-10.108-3.188z"/><path d="m461.796 253.188c-3.418-3.572-8.024-5.539-12.969-5.539 0 0-11.826 0-11.833 0-.712 0-.388-7.318-.378-7.867.111-5.728.492-11.455.525-17.184.05-8.76-3.66-16.931-8.557-24.037-2.348-3.407-7.015-4.267-10.423-1.918s-4.267 7.015-1.918 10.423c5.66 8.213 6.566 16.81 5.775 26.489-.374 4.571-.747 9.288-.171 14.094h-74.752c-3.356-6.811-3.65-14.297-3.039-21.78.746-9.133.344-17.147-2.617-25.807-3.435-10.045 2.393-19.158 9.724-23.776 7.546-4.257 18.333-5.056 25.54 2.737 3.926 4.245 8.884 8.392 14.142 11.144 3.668 1.917 8.196.501 10.115-3.166 1.918-3.667.501-8.196-3.166-10.115-4.284-2.242-6.77-4.451-10.087-8.04-12.839-13.882-31.403-12.766-44.105-5.502-.081.046-.16.093-.239.142-5.26 3.271-10.042 7.994-13.353 13.706-5.147-.317-10.571.579-16.038 3.114-2.833 1.314-5.335 2.227-7.874 2.872-8.497 2.159-17.268.378-25.847 2.394-3.449.81-6.834 2.061-10.076 3.661 1.927-8.695 1.821-17.042-2.426-25.092-3.697-7.009-9.76-12.735-16.802-16.321-.082-.042-.166-.082-.25-.121-13.276-6.156-31.867-5.688-43.477 9.235-1.917 2.465-3.725 4.421-5.686 6.156-6.548 5.792-15.162 8.224-21.887 13.956-2.927 2.496-5.553 5.416-7.83 8.619-2.671-3.253-5.723-6.154-9.072-8.549-9.343-6.682-21.131-8.988-29.184-17.694-12.839-13.88-31.403-12.766-44.104-5.502-.081.046-.16.093-.239.142-12.425 7.729-22.224 23.535-16.107 41.426 2.254 6.592 2.424 12.854 1.861 19.736-.381 4.645-.774 9.448-.153 14.351.791 6.251 2.96 12.453 6.169 18.074h-17.815c-4.945 0-9.551 1.967-12.969 5.539-3.373 3.526-5.184 8.346-4.969 13.225.736 16.684 4.307 49.948 19.956 85.277 19.307 43.589 50.551 76.664 92.863 98.31 3.256 1.666 6.61 3.268 10.04 4.797-6.083 7.289-13.571 18.556-17.135 32.885-1.455 5.853-.15 11.948 3.583 16.723 3.773 4.827 9.448 7.595 15.569 7.595h171.78c6.121 0 11.796-2.768 15.569-7.595 3.732-4.774 5.038-10.869 3.583-16.723-3.564-14.33-11.053-25.596-17.135-32.885 3.429-1.529 6.784-3.131 10.04-4.797 42.312-21.645 73.556-54.721 92.863-98.31 15.649-35.329 19.22-68.593 19.956-85.277.214-4.879-1.597-9.699-4.971-13.225zm-200.091-36.569c4.49-7.916 13.116-14.375 21.975-16.457 8.563-2.012 17.514-.272 26.112-2.458 1.068-.271 15.668-5.16 15.64-5.341-.197 4.004.344 8.214 1.827 12.552 3.966 11.617.225 22.371 1.707 34.082.369 2.914 1.048 5.813 1.982 8.651 0 0-83.596 0-83.595-.002 5.158-6.416 7.75-12.6 10.279-20.542 1.237-3.879 2.405-7.544 4.073-10.485zm-72.33-28.169c4.898-4.175 10.894-6.433 16.207-9.979 5.1-3.403 9.7-7.488 13.471-12.335 5.968-7.672 16.713-9.293 25.215-4.899 7.698 3.978 14.279 12.562 11.711 22.863-.972 3.902-1.546 7.505-1.753 11.017-.124 2.099-.052 4.163.123 6.198-2.174 2.458-4.094 5.108-5.683 7.909-3.233 5.701-4.439 12.207-6.8 18.262-2.049 5.256-4.032 8.377-7.743 12.613-2.126 2.426-3.8 4.959-5.086 7.549h-43.597c-.223-.847-.473-1.7-.767-2.559-3.89-11.378-.229-22.405-1.708-34.086-.441-3.485-1.318-6.953-2.554-10.318 2.116-4.723 5.212-9.035 8.964-12.235zm-92.355-21.587c7.547-4.258 18.334-5.057 25.541 2.736 6.173 6.676 13.209 10.94 21.468 14.562 12.362 5.422 22.265 14.486 24.067 28.723 1.096 8.66-1.557 17.475-.288 26.227.402 2.773 1.052 5.589 1.952 8.538h-70.19c-5.242-5.369-8.964-12.732-9.878-19.956-.424-3.353-.111-7.187.221-11.246.734-8.969.302-17.27-2.617-25.808-3.434-10.045 2.392-19.158 9.724-23.776zm343.726 158.816c-.01.03-.02.06-.03.092-.482 1.465-4.226 13.251-4.828 13.251-.007 0-258.633 0-258.633 0-4.139 0-7.494 3.355-7.494 7.494s3.355 7.494 7.494 7.494h251.897c-18.064 36.239-45.619 64.019-82.031 82.646-5.973 3.056-12.316 5.887-18.85 8.416-2.429.94-4.196 3.073-4.667 5.634-.471 2.562.422 5.183 2.357 6.926 2.617 2.355 15.905 15.047 20.536 33.668.459 1.844-.333 3.219-.846 3.874-.913 1.169-2.284 1.839-3.761 1.839h-171.78c-1.477 0-2.848-.67-3.761-1.839-.513-.656-1.304-2.031-.846-3.874 4.631-18.621 17.919-31.313 20.536-33.668 1.935-1.742 2.828-4.364 2.357-6.926-.471-2.561-2.238-4.694-4.667-5.634-6.534-2.528-12.877-5.36-18.85-8.416-36.412-18.627-63.967-46.407-82.031-82.646h59.49c4.139 0 7.494-3.355 7.494-7.494s-3.355-7.494-7.494-7.494h-66.226c-.868-2.155-1.702-4.335-2.505-6.536-.014-.038-.027-.075-.041-.113-2.464-6.791-4.522-13.436-6.33-20.449h377.527c-1.201 4.658-2.542 9.248-4.017 13.755zm7.364-28.744h-384.22c-2.432-12.909-3.356-23.787-3.682-31.183-.049-1.115.496-1.858.825-2.202.326-.341 1.038-.913 2.14-.913h385.654c1.102 0 1.814.572 2.14.913.329.344.874 1.088.825 2.202-.326 7.397-1.249 18.274-3.682 31.183z"/></g></g></svg>