<svg id="Capa_1" enable-background="new 0 0 512.035 512.035" height="512" viewBox="0 0 512.035 512.035" width="512" xmlns="http://www.w3.org/2000/svg"><g><g><path d="m195.895 318.119c4.143 0 7.5-3.357 7.5-7.5v-15.177c0-4.143-3.357-7.5-7.5-7.5s-7.5 3.357-7.5 7.5v15.177c0 4.143 3.357 7.5 7.5 7.5z"/><path d="m225.956 318.119c4.143 0 7.5-3.357 7.5-7.5v-15.177c0-4.143-3.357-7.5-7.5-7.5s-7.5 3.357-7.5 7.5v15.177c0 4.143 3.358 7.5 7.5 7.5z"/><path d="m256.018 318.119c4.143 0 7.5-3.357 7.5-7.5v-15.177c0-4.143-3.357-7.5-7.5-7.5s-7.5 3.357-7.5 7.5v15.177c0 4.143 3.357 7.5 7.5 7.5z"/><path d="m286.078 318.119c4.143 0 7.5-3.357 7.5-7.5v-15.177c0-4.143-3.357-7.5-7.5-7.5s-7.5 3.357-7.5 7.5v15.177c0 4.143 3.358 7.5 7.5 7.5z"/><path d="m316.14 318.119c4.143 0 7.5-3.357 7.5-7.5v-15.177c0-4.143-3.357-7.5-7.5-7.5s-7.5 3.357-7.5 7.5v15.177c0 4.143 3.357 7.5 7.5 7.5z"/><path d="m388.39 386.321c-4.143 0-7.5 3.357-7.5 7.5v70.171c0 4.143 3.357 7.5 7.5 7.5s7.5-3.357 7.5-7.5v-70.171c0-4.143-3.358-7.5-7.5-7.5z"/><path d="m123.645 386.321c-4.143 0-7.5 3.357-7.5 7.5v70.171c0 4.143 3.357 7.5 7.5 7.5s7.5-3.357 7.5-7.5v-70.171c0-4.143-3.358-7.5-7.5-7.5z"/><path d="m504.519 497.035h-15.76v-95.833c0-4.143-3.357-7.5-7.5-7.5s-7.5 3.357-7.5 7.5v95.833h-37.672c0-5.833 0-205.631 0-215.093h37.672v84.26c0 4.143 3.357 7.5 7.5 7.5s7.5-3.357 7.5-7.5c0-1.691 0-83.139 0-121.419 0-16.079-11.278-29.565-26.336-32.988v-19.635c4.755-1.127 9.095-3.586 12.582-7.204 2.874-2.982 2.786-7.73-.196-10.604-2.981-2.874-7.729-2.786-10.604.196-6.738 6.99-18.637 2.217-18.637-7.515 0-5.974 4.859-10.833 10.833-10.833 4.143 0 7.5-3.357 7.5-7.5s-3.357-7.5-7.5-7.5c-14.244 0-25.833 11.589-25.833 25.833 0 11.089 7.024 20.566 16.855 24.222v20.54c-15.058 3.422-26.336 16.908-26.336 32.988v73.444h-65.394c0-11.132 0-78.248 0-85.018 0-52.439-40.705-95.547-92.176-99.395v-31.564c21.216 4.182 43.444-4.187 56.462-22.453 5.323-7.465-2.403-17.286-10.931-13.897h-.001c-33.377 13.27-66.474-19.911-53.231-53.225 3.401-8.539-6.442-16.256-13.925-10.915-33.779 24.11-30.524 75.838 6.626 95.215v36.839c-51.463 3.847-92.162 46.941-92.176 99.369 0 .009-.001.017-.001.026 0 15.739.001 69.274.001 85.018h-65.394c0-15.123 0-58.41 0-73.444 0-16.079-11.278-29.565-26.336-32.988v-19.635c4.756-1.127 9.096-3.586 12.582-7.205 2.874-2.983 2.785-7.73-.198-10.604-2.984-2.875-7.733-2.785-10.604.198-6.716 6.974-18.636 2.233-18.636-7.516 0-5.974 4.86-10.833 10.834-10.833 4.143 0 7.5-3.357 7.5-7.5s-3.357-7.5-7.5-7.5c-14.245 0-25.834 11.589-25.834 25.833 0 11.089 7.024 20.566 16.856 24.222v20.539c-15.058 3.422-26.336 16.908-26.336 32.988v252.252h-15.758c-4.143 0-7.5 3.357-7.5 7.5s3.357 7.5 7.5 7.5h497.002c4.143 0 7.5-3.357 7.5-7.5s-3.358-7.499-7.5-7.499zm-266.603-468.34c.466 30.263 24.946 54.661 55.142 55.111-35.287 18.057-73.145-19.761-55.142-55.111zm198.171 238.248v-14.659h37.672v14.659zm18.836-40.995c7.723 0 14.374 4.671 17.278 11.336h-34.557c2.905-6.666 9.556-11.336 17.279-11.336zm-33.836 107.28v16.707h-65.394v-16.707zm-165.069-184.693c44.163 0 80.537 33.985 84.347 77.176h-168.694c3.81-43.191 40.184-77.176 84.347-77.176zm-99.676 184.693v16.707h-65.395v-16.707zm-118.066-80.944h37.672v14.659h-37.672zm18.835-26.336c7.723 0 14.374 4.671 17.278 11.336h-34.556c2.904-6.666 9.556-11.336 17.278-11.336zm-18.835 55.995h37.672v215.093h-37.672zm52.671 82.992h65.395v132.101h-65.395zm80.395-94.567h67.176c4.143 0 7.5-3.357 7.5-7.5s-3.357-7.5-7.5-7.5h-67.177v-14.658h169.353v14.658h-67.176c-4.143 0-7.5 3.357-7.5 7.5s3.357 7.5 7.5 7.5h67.176v226.667h-24.167v-120.683c0-6.882-5.6-12.481-12.481-12.481h-9.023c-4.113-18.136-20.193-31.088-39.004-31.088-18.812 0-34.892 12.952-39.005 31.088h-9.022c-6.883 0-12.482 5.6-12.482 12.481v120.684h-24.166c-.002-3.076-.002-221.217-.002-226.668zm71.974 226.667v-61.702c0-7.004 5.698-12.701 12.702-12.701s12.701 5.697 12.701 12.701v61.702zm40.403 0v-61.702c0-15.274-12.427-27.701-27.701-27.701-15.275 0-27.702 12.427-27.702 27.701v61.702h-17.808v-118.165h8.579c6.083 0 11.254-4.367 12.296-10.384 2.075-11.997 12.437-20.704 24.635-20.704s22.559 8.707 24.635 20.704c1.042 6.017 6.212 10.384 12.295 10.384h8.579v118.165zm71.975-132.1h65.394v132.101h-65.394z"/></g></g></svg>