<svg enable-background="new 0 0 487.617 487.617" version="1.1" viewBox="0 0 487.62 487.62" xml:space="preserve" xmlns="http://www.w3.org/2000/svg">

	<path d="m180.07 178.5c2.136-0.961 3.092-3.47 2.136-5.609-0.957-2.142-3.471-3.103-5.614-2.146-1.823 0.815-44.765 20.772-54.005 91.919-0.302 2.328 1.34 4.459 3.668 4.762 0.186 0.024 0.37 0.036 0.553 0.036 2.104 0 3.931-1.561 4.21-3.703 4.496-34.621 17.6-55.956 27.8-67.758 10.981-12.707 21.059-17.412 21.252-17.501z"/>
	<path d="m334.91 356.74c-3.684-2.011-7.763-3.933-12.081-5.966-14.645-6.898-31.124-14.669-42.76-30.335l80.079-67.695c4.798-4.04 7.737-9.707 8.273-15.956 0.405-4.723-0.599-9.349-2.856-13.399 3.282-3.752 5.466-8.514 6.094-13.54 0.819-6.564-0.955-12.822-4.994-17.619l-8.258-9.809c-4.04-4.798-9.706-7.736-15.956-8.273-6.245-0.537-12.333 1.393-17.162 5.458l-69.233 59.401c-0.222-6.752-0.691-14.658-1.622-22.791-2.526-22.083-7.525-37.544-14.906-46.21 8.66-1.594 17.042-4.778 24.778-9.512 16.542-10.123 28.152-26.083 32.691-44.938 5.838-24.251-1.383-50.12-18.844-67.908l-4.29-35.874c-0.802-6.713-6.502-11.776-13.257-11.776-0.531 0-1.069 0.032-1.599 0.096l-90.498 10.823c-7.316 0.877-12.556 7.541-11.681 14.856l4.785 40.019c-2.523 5-4.476 10.299-5.795 15.781-6.061 25.175 1.871 50.492 18.751 67.779-5.607 3.372-15.496 10.271-26.029 22.085-14.439 16.195-32.908 45.167-38.889 91.227-4.356 33.533-6.55 82.092-1.075 109.47l0.277 1.39c3.278 16.479 7.452 37.429 32.424 46.139-9.828 2.833-19.816 7.37-27.312 14.631-8.123 7.868-12.241 17.847-12.241 29.659v19.414c0 1.129 0.449 2.211 1.248 3.008 0.797 0.796 1.877 1.242 3.002 1.242h8e-3l207.66-0.377c20.713 0 38.17-4.446 50.485-12.856 14.243-9.728 21.772-24.872 21.772-43.794 0-39.975-11.485-52.283-50.987-73.848zm25.043-120.68c-0.342 3.987-2.217 7.603-5.285 10.186l-90.994 76.923c-2.697 2.272-6.12 3.523-9.639 3.522-4.437 0-8.617-1.944-11.471-5.333l-74.356-88.317c-2.577-3.061-3.808-6.943-3.466-10.93 0.256-2.982 1.37-5.755 3.196-8.043l39.989 49.888c0.839 1.047 2.073 1.592 3.318 1.592 0.933 0 1.872-0.305 2.656-0.934 1.831-1.468 2.126-4.143 0.658-5.974l-40.301-50.277 5.57-4.69c2.697-2.271 6.121-3.521 9.64-3.521 4.437 0 8.617 1.944 11.471 5.333l53.556 63.613c0.726 0.862 1.765 1.401 2.888 1.497 1.125 0.096 2.239-0.258 3.101-0.983l66.634-56.101c2.697-2.271 6.121-3.522 9.64-3.522 4.436 0 8.617 1.944 11.47 5.333l8.259 9.81c2.577 3.059 3.808 6.941 3.466 10.928zm-29.158-49.977c3.061-2.577 6.944-3.807 10.93-3.466 3.987 0.342 7.602 2.217 10.18 5.278l8.258 9.809c2.497 2.965 3.584 6.904 3.062 11.092-0.344 2.76-1.392 5.392-2.96 7.624l-5.535-6.574c-4.472-5.312-11.023-8.358-17.972-8.358-5.519 0-10.887 1.96-15.114 5.52l-63.383 53.364-2.14-2.542c0.044-1.393 0.109-4.107 0.112-7.773l74.562-63.974zm-161.28-166.73 90.497-10.823c0.198-0.023 0.395-0.035 0.589-0.035 2.455 0 4.526 1.843 4.819 4.288l3.976 33.255-99.718 15.646-1.411-11.797 32.865-4.449c2.326-0.314 3.957-2.456 3.642-4.781-0.314-2.326-2.456-3.959-4.781-3.642l-32.735 4.431-1.995-16.685c-0.318-2.663 1.59-5.088 4.252-5.408zm-5.438 64.206c1.095-4.548 2.678-8.956 4.712-13.132l103.83-16.29c15.042 15.689 21.211 38.26 16.115 59.429-4.008 16.648-14.258 30.739-28.864 39.677s-31.818 11.653-48.466 7.645c-34.367-8.273-55.596-42.963-47.323-77.329zm3.816 331.58c-41 2.112-46.5-22.123-50.707-43.275l-0.279-1.398c-5.286-26.432-3.1-73.842 1.169-106.71 5.67-43.66 22.972-71.033 36.488-86.308 11.661-13.179 22.588-19.88 26.629-22.098 8.043 6.423 17.568 11.239 28.218 13.803 5.684 1.369 11.426 2.045 17.127 2.045 0.302 0 0.604-0.012 0.906-0.016 16.552 6.876 20.211 50.9 20.319 76.723l-40.325-47.898c-4.473-5.312-11.023-8.358-17.973-8.358-5.519 0-10.887 1.96-15.114 5.52l-9.808 8.258c-4.798 4.04-7.736 9.706-8.273 15.955-0.536 6.249 1.393 12.333 5.433 17.131l74.355 88.317c4.472 5.313 11.022 8.359 17.973 8.359h1e-3c5.519 0 10.887-1.96 15.12-5.525l4.411-3.729c12.914 17.105 30.953 25.606 45.642 32.526 4.2 1.978 8.167 3.847 11.629 5.738 7.553 4.123 13.911 7.82 19.267 11.347h-13.361c-2.347 0-4.25 1.903-4.25 4.25s1.903 4.25 4.25 4.25h24.631c3.26 2.918 5.885 5.868 7.997 9h-38.128c-2.347 0-4.25 1.903-4.25 4.25s1.903 4.25 4.25 4.25h42.468c2.82 7.67 3.685 16.819 3.685 29.04 0 41.895-39.945 48.15-63.764 48.15l-203.41 0.369v-15.06h42.519c2.347 0 4.25-1.903 4.25-4.25s-1.903-4.25-4.25-4.25h-41.593c1.365-5.809 4.251-10.807 8.716-15.137 13.181-12.783 36.589-16.067 48.982-16.779 64.425-3.698 85.376-1.602 91.316-0.632 1.738 0.283 3.239 0.528 5.246 0.528 2.347 0 4.25-1.903 4.25-4.25s-1.903-4.25-4.25-4.25c-1.318 0-2.281-0.157-3.877-0.417-6.709-1.095-28.437-3.018-93.637 0.527z"/>
	<path d="m224.24 455.55h-49c-2.347 0-4.25 1.903-4.25 4.25s1.903 4.25 4.25 4.25h49c2.347 0 4.25-1.903 4.25-4.25s-1.903-4.25-4.25-4.25z"/>
<g fill="useCurrent" stroke="#666" stroke-width=".94355">















<path d="m218.48 161.66c-20.822-2.7336-39.286-15.975-48.622-34.87-7.4738-15.126-8.9366-29.784-4.5366-45.458 3.2085-11.429-2.3456-9.5746 55.841-18.645l51.204-7.9817 3.1682 3.7357c4.0949 4.8285 10.092 16.345 12.264 23.55 1.2421 4.1209 1.7023 8.7421 1.6916 16.984-0.0129 9.912-0.34103 12.263-2.6336 18.871-3.879 11.181-7.5941 17.066-16.146 25.58-5.9945 5.9674-9.4392 8.5112-15.646 11.554-12.347 6.0528-24.482 8.2684-36.585 6.6795z"/><path d="m169.86 58.636c-0.31292-1.1676-0.57474-3.4837-0.58183-5.1468-0.0149-3.4977-1.404-3.0774 19.697-5.9595 7.4673-1.0199 14.155-2.334 14.861-2.9201 1.7294-1.4353 1.6245-5.077-0.19871-6.9003-0.8155-0.8155-1.5965-1.4827-1.7356-1.4827-0.13911 0-7.8272 1.0566-17.085 2.3481-9.2574 1.2914-16.91 2.2468-17.005 2.123-0.0955-0.1238-0.64734-3.9859-1.2263-8.5824-1.2202-9.687-0.61636-11.613 3.8705-12.348 1.6803-0.27523 22.727-2.8378 46.77-5.6947 30.217-3.5904 44.241-4.9128 45.418-4.2828 0.93666 0.50128 1.9285 1.878 2.204 3.0593 1.03 4.4156 3.7948 31.88 3.2629 32.412-0.507 0.50701-93.875 15.498-96.525 15.498-0.63622 0-1.4128-0.95535-1.7257-2.123z"/><path d="m110.77 471.73v-7.1308h21.985c23.508 0 24.249-0.14422 24.249-4.7178 0-4.5646-0.77208-4.7178-23.778-4.7178-11.832 0-21.513-0.22642-21.513-0.50314 0-0.27674 1.0824-2.6392 2.4054-5.25 6.1775-12.191 21.055-20.461 42.978-23.893 19.293-3.0196 89.57-4.2628 106.14-1.8776 2.8856 0.41534 4.2532 0.16025 5.4254-1.012 3.3792-3.3792 1.5144-6.9806-4.215-8.1398-8.4102-1.7015-39.581-2.0599-73.398-0.84409-31.947 1.1486-35.061 1.1201-41.813-0.38224-13.044-2.9022-21.784-10.589-26.597-23.392-5.5894-14.869-8.0967-34.018-8.0934-61.813 8e-3 -72.734 11.683-116.43 39.942-149.48 6.2775-7.3426 16.787-16.611 23.081-20.354l3.4974-2.0802 4.2449 2.9035c9.7538 6.6717 25.509 12.108 35.092 12.108 6.7822 0 10.657 2.002 13.962 7.2128 7.2442 11.423 10.602 27.094 12.789 59.688l0.59528 8.8721-18.144-21.61c-28.038-33.394-28.475-33.762-40.048-33.762-8.1789 0-11.452 1.5742-21.639 10.408-9.0506 7.8485-11.246 11.72-11.689 20.615-0.29 5.8173-0.0103 7.1927 2.346 11.535 1.4714 2.7114 20.062 25.543 41.312 50.738 44.277 52.496 42.615 50.993 55.662 50.334 6.4338-0.32489 7.513-0.68491 12.39-4.1335l5.3424-3.7776 6.731 6.7277c8.6635 8.6593 18.189 14.853 36.925 24.011 8.3033 4.0586 18.706 9.5228 23.117 12.143l8.0202 4.7633-6.652 0.0217c-3.8874 0.0127-7.1226 0.49233-7.7843 1.154-1.5106 1.5106-1.4424 5.9277 0.11138 7.2172 0.73605 0.61086 6.7524 1.1394 14.741 1.295l13.497 0.26284 6.6181 8.0202h-19.748c-14.102 0-20.072 0.32374-20.88 1.1323-1.7941 1.7941-1.3757 6.2195 0.69281 7.3265 1.1056 0.59171 10.341 0.97675 23.427 0.97675h21.602l1.1853 4.9536c0.65189 2.7245 1.4073 10.261 1.6787 16.748 0.79823 19.08-2.6737 29.575-12.879 38.931-6.4244 5.8895-16.422 10.65-27.814 13.244-8.3197 1.8946-11.501 1.9573-116.83 2.3035l-108.27 0.35595zm116.12-8.1076c2.0685-1.107 2.487-5.5324 0.69281-7.3265-0.82667-0.82668-8.2553-1.1323-27.525-1.1323-23.234 0-26.599 0.18686-28.118 1.5616-2.1086 1.9082-2.1598 3.0599-0.25669 5.7769 1.4573 2.0806 1.6723 2.097 27.425 2.097 16.088 0 26.65-0.37135 27.781-0.97675zm-97.454-196.93c1.358-1.1866 2.3255-4.1732 3.4387-10.615 5.6335-32.601 21.948-60.727 43.17-74.424 6.945-4.4822 7.7514-5.6216 6.4331-9.089-1.9809-5.2102-11.324-1.1607-23.074 10-16.651 15.816-26.928 34.351-33.439 60.303-1.4971 5.968-3.0167 13.455-3.3767 16.639-0.60531 5.3515-0.49058 5.9026 1.5223 7.3125 2.7208 1.9057 3.007 1.8989 5.3249-0.12639z"/><path d="m247.37 324.43c-2.6754-1.4518-76.951-88.94-80.238-94.512-1.4274-2.4194-1.7615-4.2859-1.414-7.9018 0.25019-2.6038 0.89995-5.1792 1.4439-5.7232 0.68964-0.68965 7.0499 6.5864 21.012 24.038 11.013 13.765 20.728 25.211 21.589 25.436 3.1704 0.82908 5.7409-0.97111 5.7409-4.0205 0-2.335-3.6258-7.4241-19.012-26.686-10.457-13.09-19.576-24.46-20.265-25.266-1.0786-1.2624-0.70379-1.8875 2.7006-4.504 5.932-4.5592 10.081-5.5269 15.243-3.5554 3.7312 1.425 7.2121 5.1836 30.932 33.4 30.504 36.288 30.281 36.041 32.667 36.041 0.97828 0 17.185-12.967 36.016-28.815 18.83-15.848 35.528-29.483 37.106-30.299 3.6183-1.8711 10.837-1.3007 13.971 1.1041 4.1274 3.1661 12.449 13.822 13.756 17.614 1.5478 4.4926 0.42477 9.8812-2.7937 13.405-2.3183 2.5379-85.628 72.989-92.64 78.342-3.6473 2.784-5.195 3.369-8.8319 3.3378-2.4253-0.0208-5.5677-0.66622-6.9831-1.4343z"/><path d="m257.44 258.65c-0.29823-0.77716-0.40929-3.1015-0.24681-5.1652 0.28953-3.6775 1.0434-4.3933 37.893-35.979 20.679-17.725 38.467-32.692 39.529-33.26 1.0674-0.57125 4.2821-0.83827 7.1895-0.59717 5.098 0.42277 5.4444 0.63514 11.328 6.9464 3.3383 3.5806 6.8538 7.7841 7.8121 9.3409 1.981 3.2183 2.2133 9.0941 0.51658 13.066l-1.1478 2.6865-4.1515-4.9234c-7.4734-8.863-19.393-11.952-29.108-7.5424-3.3223 1.5079-38.887 30.623-63.187 51.728-4.4668 3.8795-6.017 4.7716-6.4285 3.6994z"/></g></svg>
