<svg version="1.1" viewBox="-26 0 511 511.78" xmlns="http://www.w3.org/2000/svg">
 <path d="m417.18 409.39c-61.562 18.766-128.37 7.4453-180.3-30.559-51.941-38.004-82.949-98.246-83.691-162.6-0.19141-77.113 42.328-147.99 110.45-184.12 6.9453-3.6211 10.449-11.582 8.4297-19.148-1.7773-7.6289-8.6016-13.012-16.434-12.961h-0.054688c-70.164-0.24609-137.32 28.508-185.55 79.461-48.238 50.957-73.277 119.58-69.191 189.62 2.8398 68.316 33.332 132.54 84.473 177.93 47.371 41.637 108.25 64.652 171.32 64.77 5.0664 0 10.152-0.15234 15.215-0.45703 36.922-2.3242 72.91-12.602 105.49-30.125 20.906-11.621 40.012-26.227 56.707-43.355 5.5312-5.5078 6.6211-14.066 2.6406-20.785-3.9766-6.7148-12.008-9.8711-19.492-7.668zm-47.945 56.773c-30.402 16.359-63.977 25.953-98.43 28.125-63.703 3.6289-126.28-17.941-174.2-60.059-47.684-42.355-76.102-102.28-78.727-166-3.8477-65.391 19.512-129.46 64.539-177.04 45.031-47.574 107.73-74.414 173.23-74.164-73.754 39.152-119.77 115.92-119.53 199.42 0.8125 69.688 34.379 134.93 90.609 176.1 56.227 41.176 128.56 53.484 195.24 33.223-15.52 15.953-33.281 29.562-52.727 40.395z"/>
 <path d="m285.49 144.85c23.523 0 42.664 22.965 42.664 51.199 0 4.7148 3.8203 8.5352 8.5352 8.5352 4.7109 0 8.5312-3.8203 8.5312-8.5352 0-28.234 19.145-51.199 42.668-51.199 4.7148 0 8.5352-3.8203 8.5352-8.5352 0-4.7109-3.8203-8.5312-8.5352-8.5312-23.523 0-42.668-22.969-42.668-51.199 0-4.7148-3.8203-8.5352-8.5312-8.5352-4.7148 0-8.5352 3.8203-8.5352 8.5352 0 28.23-19.141 51.199-42.664 51.199-4.7148 0-8.5352 3.8203-8.5352 8.5312 0 4.7148 3.8203 8.5352 8.5352 8.5352zm51.199-33.133c5.168 10 12.855 18.477 22.305 24.598-9.4492 6.125-17.137 14.602-22.305 24.602-5.1719-10-12.859-18.477-22.305-24.602 9.4453-6.1211 17.133-14.598 22.305-24.598z"/>
 <path d="m451.28 225.92c-17.477 0-31.695-17.227-31.695-38.398 0-4.7148-3.8203-8.5352-8.5312-8.5352-4.7148 0-8.5352 3.8203-8.5352 8.5352 0 21.172-14.215 38.398-31.695 38.398-4.7109 0-8.5352 3.8203-8.5352 8.5352 0 4.7109 3.8242 8.5312 8.5352 8.5312 17.48 0 31.695 17.227 31.695 38.402 0 4.7109 3.8203 8.5312 8.5352 8.5312 4.7109 0 8.5312-3.8203 8.5312-8.5312 0-21.176 14.219-38.402 31.695-38.402 4.7148 0 8.5352-3.8203 8.5352-8.5312 0-4.7148-3.8203-8.5352-8.5352-8.5352zm-40.227 24.148c-3.6523-6.1133-8.5039-11.426-14.27-15.613 5.7656-4.1875 10.617-9.5 14.27-15.617 3.6484 6.1172 8.5039 11.43 14.266 15.617-5.7617 4.1875-10.617 9.5-14.266 15.613z"/>
 <g stroke="#666" stroke-width="2.7604">
  <path transform="matrix(.75115 0 0 .75115 -26.392 0)" d="m340.94 655.03c-73.17-8.4849-150.19-47.583-198.36-100.69-113.28-124.9-109.96-314.33 7.6198-434.67 48.948-50.1 116.01-84.392 180.12-92.101 7.2115-0.86725 19.012-2.2956 26.224-3.174l13.112-1.5972-20.384 14.122c-46.456 32.186-75.321 64.246-98.945 109.9-24.563 47.466-34.064 86.035-34.154 138.65-0.0894 52.223 10.245 94.007 34.553 139.7 48.185 90.579 141.46 149.6 244.53 154.72 28.035 1.3925 48.215-0.0811 82.812-6.0477l9.6614-1.6662-12.195 11.327c-39.522 36.709-102.53 63.98-165.78 71.751-26.363 3.2388-39.4 3.1987-68.809-0.21173z" fill="useCurrent"/>
  <path transform="matrix(.75115 0 0 .75115 -26.392 0)" d="m477.94 202.97c-2.6492-4.4848-8.5679-11.311-13.152-15.168l-8.3356-7.014 6.7266-4.4074c3.6996-2.4241 9.5496-8.5274 13-13.563l6.2734-9.1554 26.097 28.278-9.4047 9.6614c-5.1726 5.3138-10.976 11.88-12.896 14.592-3.236 4.5702-3.8431 4.3347-8.308-3.2237z" fill="useCurrent"/>
  <path transform="matrix(.75115 0 0 .75115 -26.392 0)" d="m574.85 320.41-7.1574-8.9701 14.572-16.318 14.488 16.596-14.746 17.663z" fill="useCurrent"/>
  <path transform="matrix(.75115 0 0 .75115 -26.392 0)" d="m334.12 651.01c-103.87-16.153-193.22-80.2-238.46-170.94-37.334-74.871-42.994-165.4-15.187-242.91 36.838-102.68 126.47-181.45 231.21-203.18 13.664-2.835 28.957-5.1708 33.985-5.1908 8.9151-0.03537 8.6012 0.37061-12.692 16.415-88.395 66.608-131.94 173.76-116.3 286.19 13.277 95.459 80.946 184.81 170.39 224.99 47.673 21.414 106.23 30.681 156.75 24.808 16.142-1.8764 29.906-2.855 30.587-2.1746 2.2076 2.2076-31.275 26.379-52.034 37.565-40.245 21.684-107.75 39.177-148.58 38.502-8.3502-0.13802-26.201-1.9647-39.669-4.0591z" fill="useCurrent"/>
 </g>
</svg>
