<svg enable-background="new 0 0 493.853 493.853" version="1.1" viewBox="0 0 493.85 493.85" xml:space="preserve" xmlns="http://www.w3.org/2000/svg">
<path d="m483.02 300.61c0-19.177-15.601-34.778-34.777-34.778-0.306 0-0.608 0.015-0.912 0.023 4.31-5.454 6.892-12.332 6.892-19.807 0-17.651-14.36-32.012-32.011-32.012-5.068 0-9.861 1.189-14.125 3.294 0.245-1.536 0.376-3.11 0.376-4.714 0-16.446-13.379-29.826-29.824-29.826-6.358 0-12.254 2.007-17.1 5.411-0.413-15.395-13.055-27.794-28.546-27.794-7.475 0-14.283 2.888-19.381 7.603-1.375-12.793-12.232-22.788-25.383-22.788-4.836 0-9.362 1.352-13.222 3.696 1.263-3.879 1.956-7.845 1.956-11.638 0-9.276-3.327-26.77-7.74-40.691-2.925-9.228-6.081-16.365-9.448-21.399-6.189-17.969-7.089-29.498-2.663-34.258 6.745-7.258 28.717-1.406 49.966 4.254 55.042 14.661 121.42 26.416 122.08 26.533 1.499 0.265 3.022-0.292 3.997-1.458 15.282-18.264 6.987-64.803 6.627-66.776-0.407-2.232-2.502-3.751-4.747-3.447-0.294 0.039-29.893 3.958-74.398 4.977-14.008 0.321-26.512 0.473-37.543 0.607-51.212 0.622-74.585 0.906-88.646 16.725-13.587 15.286-3.96 45.996-1.087 54.072-3.07 4.944-5.961 11.669-8.655 20.17-4.413 13.922-7.74 31.416-7.74 40.692 0 3.808 0.509 7.669 1.459 11.399-3.768-2.194-8.142-3.458-12.808-3.458-13.15 0-24.008 9.995-25.383 22.788-5.098-4.715-11.906-7.603-19.381-7.603-15.491 0-28.133 12.398-28.546 27.794-4.846-3.404-10.741-5.411-17.1-5.411-16.445 0-29.824 13.38-29.824 29.826 0 1.604 0.131 3.178 0.376 4.714-4.264-2.105-9.057-3.294-14.125-3.294-17.65 0-32.011 14.36-32.011 32.012 0 7.475 2.582 14.353 6.892 19.807-0.305-8e-3 -0.606-0.023-0.912-0.023-19.177 0-34.777 15.602-34.777 34.778 0 16.797 11.97 30.85 27.827 34.079-7.345 6.29-12.013 15.621-12.013 26.027 0 18.897 15.374 34.271 34.271 34.271 2.256 0 4.46-0.225 6.595-0.643-2.339 4.86-3.651 10.305-3.651 16.05 0 20.477 16.659 37.137 37.137 37.137 10.253 0 19.548-4.177 26.274-10.918 1.966 21.116 19.778 37.703 41.398 37.703 13.689 0 25.853-6.651 33.435-16.889 4.355 20.774 22.814 36.424 44.863 36.424 22.02 0 40.457-15.607 44.846-36.338 7.586 10.189 19.721 16.803 33.372 16.803 21.62 0 39.433-16.586 41.4-37.702 6.727 6.74 16.021 10.917 26.273 10.917 20.478 0 37.138-16.66 37.138-37.137 0-5.745-1.313-11.19-3.651-16.05 2.135 0.418 4.338 0.643 6.594 0.643 18.897 0 34.272-15.374 34.272-34.271 0-10.406-4.668-19.737-12.013-26.027 15.857-3.229 27.826-17.282 27.826-34.079zm-198.11 121.71c-8.253-12.154-22.184-20.155-37.949-20.155-15.803 0-29.763 8.038-38.008 20.24-4.602-17.955-20.92-31.267-40.29-31.267-12.272 0-23.317 5.348-30.936 13.832-2.633-17.916-18.102-31.715-36.737-31.716-2.965 0-5.846 0.359-8.611 1.019 1.8-4.162 2.803-8.746 2.803-13.561 0-16.467-11.676-30.255-27.182-33.53 7.563-6.385 12.38-15.927 12.38-26.577 0-8.604-3.147-16.482-8.343-22.56 17.467-0.219 31.608-14.486 31.608-32.002 0-2.126-0.213-4.202-0.61-6.213 3.72 1.67 7.837 2.607 12.171 2.607 16.401 0 29.751-13.31 29.822-29.696 4.532 3.028 9.975 4.798 15.823 4.798 15.256 0 27.758-12.02 28.531-27.087 4.415 3.646 10.072 5.839 16.232 5.839 14.081 0 25.537-11.456 25.537-25.536 0-0.342-0.013-0.681-0.025-1.02 4.121 3.285 8.998 5.27 14.448 5.27 6.399 0 12.336-2.802 17.288-7.188-0.11 0.965-0.174 1.944-0.174 2.938 0 14.081 11.456 25.536 25.537 25.536 6.16 0 11.817-2.193 16.232-5.839 0.773 15.067 13.275 27.087 28.531 27.087 5.849 0 11.291-1.769 15.824-4.798 0.07 16.386 13.42 29.696 29.821 29.696 4.335 0 8.452-0.937 12.172-2.607-0.398 2.011-0.61 4.088-0.61 6.214 0 17.516 14.143 31.783 31.607 32.002-5.195 6.078-8.343 13.956-8.343 22.56 0 10.65 4.816 20.192 12.38 26.577-15.506 3.275-27.182 17.062-27.182 33.53 0 4.815 1.003 9.399 2.803 13.561-2.766-0.66-5.646-1.019-8.611-1.019-18.636 1e-3 -34.104 13.8-36.736 31.715-7.619-8.483-18.664-13.831-30.937-13.831-19.337-1e-3 -35.636 13.269-40.266 31.181zm160.81-176.28c0 12.964-10.547 23.512-23.511 23.512-10.1 0-18.731-6.402-22.053-15.361h29.393c2.348 0 4.25-1.903 4.25-4.25s-1.902-4.25-4.25-4.25h-30.843c0.189-12.804 10.655-23.163 23.503-23.163 12.964 0 23.511 10.548 23.511 23.512zm-67.084-54.757c9.551 0 17.655 6.313 20.362 14.985h-13.713c-2.348 0-4.25 1.903-4.25 4.25s1.902 4.25 4.25 4.25h14.565c-1.086 10.747-10.186 19.165-21.215 19.165-11.759 0-21.325-9.567-21.325-21.326 1e-3 -11.758 9.567-21.324 21.326-21.324zm-45.645-22.383c11.064 0 20.065 9.003 20.065 20.068s-9.001 20.067-20.065 20.067c-11.066 0-20.069-9.002-20.069-20.067-1e-3 -11.066 9.002-20.068 20.069-20.068zm-44.764-15.185c9.393 0 17.033 7.643 17.033 17.036s-7.641 17.036-17.033 17.036c-9.395 0-17.037-7.643-17.037-17.036 0-9.394 7.642-17.036 17.037-17.036zm-19.766-16.442c0 14.477-11.55 29.227-22.886 29.227-11.511 0-20.111-15.43-20.111-29.226 0-3.07 0.485-7.706 1.377-13.108h27.727c2.348 0 4.25-1.903 4.25-4.25s-1.902-4.25-4.25-4.25h-26.109c0.569-2.646 1.214-5.368 1.927-8.099h14.499c2.348 0 4.25-1.903 4.25-4.25s-1.902-4.25-4.25-4.25h-12.052c6.116-19.259 11.914-24.353 14.128-24.353 2.218 0 8.031 5.107 14.157 24.436 4.596 14.501 7.343 30.771 7.343 38.123zm-27.661-109.29c11.566-13.012 33.762-13.282 82.395-13.873 11.053-0.134 23.58-0.287 37.635-0.608 35.415-0.811 61.551-3.448 71.232-4.555 0.439 2.989 0.872 6.612 1.203 10.58h-68.038c-2.348 0-4.25 1.903-4.25 4.25s1.902 4.25 4.25 4.25h68.536c0.09 2.664 0.115 5.385 0.051 8.099h-33.314c-2.348 0-4.25 1.903-4.25 4.25s1.902 4.25 4.25 4.25h32.783c-0.219 2.07-0.509 4.088-0.881 6.024h-9.77c-2.348 0-4.25 1.903-4.25 4.25s1.902 4.25 4.25 4.25h7.313c-0.563 1.344-1.196 2.593-1.911 3.72-12.78-2.318-70.234-12.981-118.77-25.909-25.839-6.882-48.155-12.826-58.379-1.827-5.586 6.009-6.475 16.054-2.663 31.163-0.418-0.052-0.838-0.085-1.26-0.085-2.462 0-4.846 0.888-7.148 2.643-3.578-11.917-7.171-31.693 0.988-40.872zm-35.184 125.73c9.395 0 17.037 7.642 17.037 17.036s-7.643 17.036-17.037 17.036c-9.393 0-17.033-7.642-17.033-17.036s7.64-17.036 17.033-17.036zm-44.764 15.185c11.066 0 20.069 9.002 20.069 20.067 0 0.47-0.038 0.931-0.07 1.394h-13.427c-2.348 0-4.25 1.903-4.25 4.25s1.902 4.25 4.25 4.25h10.867c-3.456 6.066-9.972 10.174-17.439 10.174-11.064 0-20.065-9.002-20.065-20.067 0-11.066 9-20.068 20.065-20.068zm-45.646 22.383c11.759 0 21.325 9.566 21.325 21.325s-9.566 21.326-21.325 21.326c-11.758 0-21.324-9.566-21.324-21.325 0-1.15 0.117-2.272 0.294-3.373h15.152c2.348 0 4.25-1.903 4.25-4.25s-1.902-4.25-4.25-4.25h-11.824c3.832-5.698 10.336-9.453 17.702-9.453zm-43.573 31.245c12.965 0 23.513 10.547 23.513 23.511 0 12.965-10.548 23.512-23.513 23.512-12.964 0-23.511-10.547-23.511-23.512 0-12.963 10.547-23.511 23.511-23.511zm-52.308 78.074c0-0.024 2e-3 -0.048 2e-3 -0.073h22.223c2.348 0 4.25-1.903 4.25-4.25s-1.902-4.25-4.25-4.25h-20.782c3.563-10.292 13.346-17.706 24.834-17.706 14.49 0 26.278 11.788 26.278 26.278s-11.788 26.278-26.278 26.278c-14.489 1e-3 -26.277-11.787-26.277-26.277zm15.814 60.106c0-14.21 11.561-25.771 25.771-25.771s25.771 11.561 25.771 25.771-11.561 25.771-25.771 25.771-25.771-11.561-25.771-25.771zm65.852 78.315c-15.79 0-28.637-12.846-28.637-28.637s12.847-28.637 28.637-28.637c15.79 1e-3 28.637 12.847 28.637 28.637-1e-3 15.791-12.847 28.637-28.637 28.637zm67.672 26.785c-18.243 0-33.086-14.843-33.086-33.087 0-18.245 14.843-33.087 33.086-33.087 6.491 0 12.548 1.887 17.663 5.129h-27.201c-2.348 0-4.25 1.903-4.25 4.25s1.902 4.25 4.25 4.25h36.276c1.066 1.461 2.015 3.013 2.833 4.642h-23.203c-2.348 0-4.25 1.903-4.25 4.25s1.902 4.25 4.25 4.25h26.107c0.397 2.046 0.612 4.156 0.612 6.316 1e-3 18.244-14.841 33.087-33.087 33.087zm78.298 19.536c-20.589 0-37.34-16.751-37.34-37.341s16.751-37.342 37.34-37.342c20.59 0 37.342 16.751 37.342 37.342 0 0.344-0.017 0.683-0.025 1.024h-13.802c-2.348 0-4.25 1.903-4.25 4.25s1.902 4.25 4.25 4.25h12.592c-0.685 2.59-1.645 5.068-2.841 7.407h-26.35c-2.348 0-4.25 1.903-4.25 4.25s1.902 4.25 4.25 4.25h20.392c-6.822 7.32-16.536 11.91-27.308 11.91zm78.218-19.536c-18.244 0-33.087-14.843-33.087-33.087 0-3.914 0.688-7.67 1.941-11.158h34.539c2.348 0 4.25-1.903 4.25-4.25s-1.902-4.25-4.25-4.25h-29.988c6.033-8.141 15.707-13.429 26.595-13.429 18.244 0 33.087 14.843 33.087 33.087 0 4.029-0.727 7.891-2.051 11.465h-33.176c-2.348 0-4.25 1.903-4.25 4.25s1.902 4.25 4.25 4.25h28.502c-6.046 7.966-15.612 13.122-26.362 13.122zm67.673-26.785c-15.79 0-28.637-12.846-28.637-28.637 0-15.79 12.847-28.636 28.637-28.637 15.791 0 28.638 12.846 28.638 28.637 0 0.903-0.047 1.795-0.13 2.677h-31.233c-2.348 0-4.25 1.903-4.25 4.25s1.902 4.25 4.25 4.25h29.091c-4.364 10.253-14.539 17.46-26.366 17.46zm65.852-78.315c0 14.21-11.561 25.771-25.772 25.771s-25.772-11.561-25.772-25.771 11.561-25.771 25.772-25.771c14.211-1e-3 25.772 11.56 25.772 25.771zm-10.463-33.828c-14.49 0-26.278-11.789-26.278-26.278 0-14.49 11.788-26.278 26.278-26.278 14.489 0 26.277 11.788 26.277 26.278s-11.788 26.278-26.277 26.278z"/><g fill="useCurrent" stroke="#666" stroke-width="1.6523">
<path d="m158.05 463.16c-10.745-3.0989-21.855-18.652-21.82-30.546 0.0219-7.4139 3.9725-16.182 10.012-22.222 7.7043-7.7043 9.1323-8.0134 9.0455-1.9581l-0.0651 4.5438 20.241 0.46393c21.255 0.48719 28.953 3.6668 8.8769 3.6668-11.94 0-16.061 2.1123-14.099 7.2259 0.84555 2.2035 3.6795 2.6879 15.725 2.6879h14.694l-0.0363 6.1961c-0.12586 21.49-20.993 36.165-42.574 29.942z"/><path d="m238.65 483.31c-17.456-5.3099-28.042-19.104-28.069-36.576-0.0141-9.0139 7.8664-22.981 16.243-28.788 6.4736-4.4881 8.412-4.9671 20.098-4.9671s13.625 0.47906 20.098 4.9671c7.553 5.2364 16.252 19.54 16.252 26.723 0 3.503-0.71861 3.8345-8.3133 3.8345-5.8965 0-8.5922 0.72665-9.2725 2.4995-1.5957 4.1583 2.6484 7.4143 9.6643 7.4143 4.4974 0 6.3315 0.64605 5.8634 2.0654-0.44256 1.3418-5.5558 2.3548-14.595 2.8915-14.587 0.86612-18.045 1.9818-18.045 5.8224 0 3.5225 5.5036 5.7396 14.349 5.7804l7.957 0.0367-4.1307 3.1748c-7.0913 5.4502-19.553 7.7216-28.1 5.1217z"/><path d="m312.19 461.91c-11.41-5.266-19.001-16.816-19.001-28.909 0-10.893 0.0673-10.928 20.94-10.928h18.934l-0.52282-4.5438c-0.52099-4.5279-0.57708-4.5467-15.992-5.37-14.749-0.78765-15.323-0.95799-12.332-3.6547 9.019-8.13 23.352-9.9599 34.76-4.4377 12.274 5.9417 20.328 20.947 17.975 33.49l-1.1048 5.8889-37.047 0.93316v4.1307c0 4.0583 0.27538 4.1452 15.697 4.9569l15.697 0.82615-4.9569 3.465c-10.986 7.6797-22.318 9.1034-33.046 4.1521z"/><path d="m385.37 436.96c-12.314-3.7119-19.483-13.904-19.483-27.697 0-17.95 19.18-31.381 35.83-25.091 9.4413 3.5672 18.696 15.729 18.696 24.568 0 3.053-1.2668 3.3351-16.936 3.7707-16.838 0.46815-16.936 0.49478-16.936 4.6016 0 4.0742 0.20931 4.1372 15.284 4.6058 8.4061 0.2613 15.284 1.0516 15.284 1.7562 0 2.4716-9.1487 10.011-15.231 12.552-6.716 2.8054-9.7307 2.9758-16.508 0.93295z"/><path d="m422.12 382.76c-18.203-10.037-18.05-34.825 0.27394-44.301 13.568-7.0165 32.156 2.7168 35.094 18.376 1.37 7.3028-4.0486 19.494-10.861 24.435-6.43 4.6642-17.526 5.3385-24.507 1.4892z"/><path d="m437.39 322.87c-19.729-10.018-18.597-37.586 1.864-45.4 9.1746-3.5038 17.097-2.3239 24.13 3.5935 13.815 11.624 13.014 29.628-1.806 40.601-6.619 4.9009-15.99 5.3679-24.188 1.2053z"/><path d="m412.98 266.48c-4.4989-2.4883-10.74-8.2562-10.74-9.9259 0-0.75035 6.6008-1.3643 14.668-1.3643 15.327 0 19.51-1.7368 17.403-7.2259-0.86037-2.2421-3.8602-2.6879-18.088-2.6879h-17.057l1.4869-5.1846c6.6738-23.27 40.261-20.384 43.875 3.7706 2.3166 15.482-18.05 30.083-31.548 22.618z"/><path d="m371.53 231.38c-10.714-4.7066-15.826-16.311-11.619-26.379 5.3137-12.717 21.253-16.494 31.529-7.4715 3.2123 2.8204 5.8405 5.7538 5.8405 6.5186s-3.5318 1.6172-7.8484 1.8942c-7.1358 0.45788-7.8484 0.87866-7.8484 4.6344 0 3.8182 0.65641 4.1685 8.6746 4.6302 4.771 0.27469 8.6746 0.86926 8.6746 1.3213s-1.0773 2.9051-2.394 5.4513c-4.6193 8.9327-16.181 13.279-25.009 9.4006z"/><path d="m325.38 205.79c-15.633-7.0086-14.028-30.113 2.4337-35.045 13.761-4.123 27.505 9.6208 23.382 23.382-3.3997 11.347-14.916 16.549-25.816 11.663z"/><path d="m281.23 184.86c-14.75-8.0034-9.6445-29.558 7.0015-29.558 16.855 0 21.763 21.83 6.6633 29.638-5.9343 3.0687-7.8826 3.0573-13.665-0.0801z"/><path d="m198.62 184.86c-14.75-8.0034-9.6444-29.558 7.0015-29.558 16.855 0 21.763 21.83 6.6633 29.638-5.9343 3.0687-7.8826 3.0573-13.665-0.0801z"/><path d="m156.88 207.69c-6.3639-1.5569-12.322-7.2414-14.216-13.563-1.6255-5.4255-1.4488-7.303 1.1978-12.722 3.8161-7.8141 13.073-12.935 20.452-11.315 6.4179 1.4096 14.872 9.884 14.872 14.908 0 3.4961-0.83647 3.9668-7.8484 4.4167-7.1358 0.45788-7.8484 0.87866-7.8484 4.6344 0 3.5806 0.8252 4.199 6.1961 4.6436 7.3381 0.60734 7.9177 2.6573 1.6523 5.8446-6.2247 3.1667-10.548 4.1094-14.458 3.1528z"/><path d="m110.68 232.53c-8.3857-2.2112-15.766-10.905-15.766-18.572 0-2.9511 1.0364-3.3866 8.0592-3.3866 8.5282 0 12.909-2.9056 11.179-7.4143-0.64815-1.689-3.238-2.4995-7.9874-2.4995h-7.0282l3.4867-3.4867c2.0792-2.0792 6.396-3.8056 10.694-4.2766 9.8106-1.0753 17.908 4.3192 20.987 13.983 1.9747 6.1958 1.8854 7.6076-0.82615 13.062-4.7302 9.5156-14.338 14.821-22.799 12.59z"/><path d="m60.048 264.66c-14.623-9.7685-14.288-28.508 0.67158-37.63 14.444-8.8069 33.094 1.9423 33.094 19.074 0 17.566-19.338 28.193-33.765 18.555z"/><path d="m37.086 324.38c-7.83-3.1222-16.524-13.838-16.524-20.368 0-2.0643 2.2023-2.5605 11.364-2.5605 11.82 0 16.433-2.3335 14.512-7.3403-0.67481-1.7585-4.2469-2.5594-12.99-2.9126l-12.059-0.48708 6.6908-6.8852c8.3859-8.6295 15.871-10.425 26.516-6.3595 20.533 7.8415 21.599 35.731 1.7335 45.347-7.6681 3.7121-12.81 4.1304-19.243 1.5656z"/><path d="m50.989 383.37c-6.0748-2.645-11.377-8.9938-13.903-16.649-4.7107-14.273 8.2336-30.581 24.261-30.566 13.013 0.0128 23.637 11.22 23.648 24.947 0.01421 17.55-17.899 29.28-34.006 22.267z"/><path d="m90.716 435.56c-17.792-8.2892-22.631-28.536-10.203-42.692 12.438-14.166 31.763-13.44 42.659 1.6023 8.7064 12.019 5.537 30.4-6.6228 38.409-8.4422 5.5604-17.61 6.5114-25.834 2.6799z"/><path d="m158.53 402.24c4.2556-1.8287 15.572-1.8287 19.828 0 2.2082 0.94889-1.081 1.42-9.9138 1.42-8.8328 0-12.122-0.47114-9.9138-1.42z"/><path d="m237.34 161.85c-7.2427-6.0943-10.238-13.787-10.238-26.293v-10.903h15.52c12.809 0 15.7-0.46955 16.551-2.6879 2.0401-5.3165-2.122-7.2259-15.751-7.2259-11.915 0-13.016-0.27967-13.016-3.3046 0-2.8997 1.1015-3.3046 8.9901-3.3046 9.5514 0 11.671-1.3807 10.034-6.5369-0.77137-2.4304-2.8097-3.3233-8.4527-3.7029l-7.4362-0.50019 5.1704-10.327c3.4083-6.8075 6.1632-10.327 8.0834-10.327 9.3428 0 24.06 53.401 19.153 69.498-2.8102 9.2195-14.149 19.726-21.289 19.726-1.3386 0-4.6326-1.8502-7.32-4.1115z"/><path d="m238.75 60.63c-2.8655-10.318-2.1418-23.691 1.6157-29.854 7.5846-12.44 19.48-14.306 108.18-16.969 34.533-1.0366 67.434-2.2376 73.114-2.6689 10.191-0.77388 10.327-0.72842 10.327 3.4605v4.2446l-70.223 0.89187v8.2615l35.937 0.4453c34.362 0.42578 35.937 0.58637 35.937 3.6636 0 2.9711-1.4277 3.2541-18.588 3.6854l-18.588 0.46719v4.1307c0 4.1209 0.0424 4.1319 17.762 4.5997 14.292 0.37734 17.762 0.94231 17.762 2.8915 0 1.7279-1.91 2.4225-6.661 2.4225-7.2726 0-10.076 3.1959-6.5399 7.4564 1.4973 1.8041 1.5279 2.4574 0.115 2.4574-4.454 0-76.201-15.718-106.71-23.377-27.885-7.001-34.916-8.2053-45.019-7.7119-10.452 0.51044-12.552 1.163-16.523 5.1343-4.1795 4.1795-4.5496 5.588-4.5496 17.317 0 11.55-1.0553 15.147-4.4662 15.221-0.63886 0.01392-1.9359-2.7629-2.8823-6.1708z"/></g></svg>
