<svg enable-background="new 0 0 512 512" version="1.1" viewBox="0 0 512 512" xmlns="http://www.w3.org/2000/svg">
 <path d="m408.31 287c0-4.132-3.349-7.481-7.481-7.481h-289.65c-4.132 0-7.481 3.349-7.481 7.481s3.349 7.481 7.481 7.481h289.65c4.132 0 7.482-3.35 7.482-7.481z"/>
 <circle cx="221.56" cy="332.76" r="7.481"/>
 <circle cx="263.48" cy="332.76" r="7.481"/>
 <circle cx="305.4" cy="332.76" r="7.481"/>
 <circle cx="347.32" cy="332.76" r="7.481"/>
 <circle cx="389.24" cy="332.76" r="7.481"/>
 <circle cx="221.56" cy="372.85" r="7.481"/>
 <circle cx="263.48" cy="372.85" r="7.481"/>
 <circle cx="305.4" cy="372.85" r="7.481"/>
 <circle cx="347.32" cy="372.85" r="7.481"/>
 <circle cx="389.24" cy="372.85" r="7.481"/>
 <circle cx="221.56" cy="412.94" r="7.481"/>
 <circle cx="263.48" cy="412.94" r="7.481"/>
 <circle cx="305.4" cy="412.94" r="7.481"/>
 <circle cx="347.32" cy="412.94" r="7.481"/>
 <circle cx="389.24" cy="412.94" r="7.481"/>
 <path d="m221.56 445.55c-4.132 0-7.481 3.349-7.481 7.481s3.349 7.481 7.481 7.481 7.481-3.349 7.481-7.481-3.35-7.481-7.481-7.481z"/>
 <path d="m263.48 445.55c-4.132 0-7.481 3.349-7.481 7.481s3.349 7.481 7.481 7.481 7.481-3.349 7.481-7.481-3.35-7.481-7.481-7.481z"/>
 <path d="m115.27 424.56c-4.132 0-7.481 3.349-7.481 7.481v20.499c0 6.748 5.49 12.239 12.239 12.239h54.845c6.748 0 12.238-5.49 12.238-12.239v-122.5c0-6.748-5.49-12.238-12.238-12.238h-54.845c-6.748 0-12.239 5.49-12.239 12.238v66.979c0 4.132 3.349 7.481 7.481 7.481s7.481-3.349 7.481-7.481v-64.256h49.398v117.06h-49.398v-17.776c0-4.132-3.349-7.481-7.481-7.481z"/>
 <path d="m327.634 118.794c-1.301-4.005-4.698-6.869-8.865-7.475l-15.72-2.285-7.029-14.244c-1.863-3.776-5.637-6.121-9.847-6.121s-7.984 2.345-9.847 6.121l-7.029 14.244-15.721 2.285c-4.167.606-7.563 3.47-8.864 7.475-1.301 4.004-.236 8.318 2.779 11.256l11.375 11.088-2.685 15.656c-.712 4.15.962 8.266 4.369 10.741 3.406 2.474 7.837 2.794 11.564.836l14.06-7.392 14.06 7.391c1.621.852 3.375 1.274 5.121 1.274 2.267 0 4.519-.711 6.443-2.109 3.407-2.475 5.081-6.591 4.369-10.741l-2.686-15.656 11.375-11.088c3.014-2.938 4.079-7.252 2.778-11.256zm-26.097 13.092c-2.588 2.524-3.768 6.158-3.157 9.719l1.676 9.77-8.773-4.612c-1.6-.842-3.355-1.262-5.11-1.262s-3.51.42-5.11 1.261l-8.774 4.613 1.676-9.772c.609-3.561-.571-7.194-3.159-9.717l-7.098-6.919 9.809-1.425c3.577-.52 6.669-2.765 8.269-6.007l4.386-8.889 4.387 8.89c1.6 3.241 4.691 5.487 8.268 6.006l9.809 1.426z"/>
 <path d="m444.9 155.07c4.132 0 7.481-3.349 7.481-7.481v-81.065c0-15.116-12.298-27.413-27.413-27.413h-16.659v-15.993c0-12.748-10.371-23.118-23.118-23.118s-23.118 10.37-23.118 23.118v15.992h-212.14v-15.992c0-12.748-10.371-23.118-23.118-23.118s-23.118 10.37-23.118 23.118v15.992h-16.658c-15.116 0-27.413 12.298-27.413 27.413v418.06c-1e-3 15.116 12.297 27.414 27.413 27.414h337.93c15.116 0 27.413-12.298 27.413-27.413v-302.39c0-4.131-3.349-7.481-7.481-7.481s-7.481 3.349-7.481 7.481v302.39c0 6.866-5.586 12.452-12.452 12.452h-337.93c-6.866 0-12.452-5.586-12.452-12.452v-418.06c0-6.866 5.586-12.452 12.452-12.452h16.659v9.777c0 12.747 10.37 23.118 23.118 23.118s23.118-10.371 23.118-23.118v-9.777h212.14v9.777c0 12.747 10.371 23.118 23.118 23.118s23.118-10.371 23.118-23.118v-9.777h16.659c6.866 0 12.452 5.586 12.452 12.452v81.065c-1e-3 4.131 3.348 7.481 7.48 7.481zm-309.93-91.221c0 4.497-3.659 8.156-8.156 8.156s-8.156-3.659-8.156-8.156v-40.731c0-4.497 3.659-8.156 8.156-8.156s8.156 3.659 8.156 8.156zm258.38 0c0 4.497-3.659 8.156-8.156 8.156s-8.156-3.659-8.156-8.156v-40.731c0-4.497 3.659-8.156 8.156-8.156s8.156 3.659 8.156 8.156z"/>
 <path d="m222.268 80.913c-3.532-2.867-8.464-3.13-12.274-.651-27.776 18.064-44.347 48.607-44.328 81.703.015 26.115 10.109 50.577 28.423 68.881 18.314 18.303 42.782 28.383 68.898 28.383 33.08 0 63.603-16.573 81.648-44.333 2.477-3.812 2.214-8.744-.656-12.274-2.883-3.548-7.682-4.818-11.943-3.164-9.647 3.748-19.827 5.62-30.31 5.551-44.835-.275-81.548-36.974-81.839-81.809-.068-10.473 1.799-20.682 5.548-30.343 1.654-4.262.381-9.062-3.167-11.944zm109.822 125.828c0 .001-.002.003-.003.005.001-.001.002-.003.003-.005zm-30.455 13.228c7.482.027 14.859-.747 22.046-2.365-15.472 16.893-37.329 26.663-60.694 26.663-22.121 0-42.833-8.525-58.321-24.004s-24.025-36.186-24.038-58.307c-.013-23.378 9.758-45.254 26.661-60.74-1.619 7.199-2.411 14.583-2.363 22.079.343 52.981 43.727 96.349 96.709 96.674z"/>
 <g fill="useCurrent" stroke="#666" stroke-width="1.713">
  <path d="m241.58 240.43c-34.384-9.2445-60.097-43.144-60.097-79.228 0-16.365 10.017-42.569 19.778-51.739l4.0423-3.7975-0.93873 11.785c-4.4522 55.895 45.839 106.34 102.73 103.05l13.638-0.78946-5.8167 4.7944c-19.887 16.392-48.502 22.607-73.339 15.93z"/>
  <path d="m274.02 144.36c0.59037-8.8063 7e-3 -10.663-4.7313-15.057l-4.6933-4.3518h5.6276c5.5407 0 14.037-6.174 14.037-10.2 0-3.3433 2.5588-1.7881 5.4668 3.3227 2.2236 3.908 4.5361 5.3539 9.9458 6.219l7.0486 1.1271-4.3786 4.5702c-3.2858 3.4297-4.3786 6.3787-4.3786 11.817 0 6.6339-0.28024 7.0968-3.3134 5.4736-4.309-2.3061-13.119-2.2674-17.499 0.0768-3.1115 1.6652-3.4244 1.3657-3.1319-2.9978z"/>
  <path d="m392.84 43.587c3e-3 -11.306 0.28063-15.708 0.61609-9.7827s0.33269 15.176-6e-3 20.556c-0.33885 5.3805-0.61331 0.53242-0.60993-10.773z"/>
  <path d="m381.48 70.001c-2.6356-1.5351-2.9978-4.7291-2.9978-26.439 0-22.631 0.27579-24.841 3.3019-26.46 3.1831-1.7035 8.4752-0.86924 8.8907 1.4016 0.11087 0.60582 0.32817 11.814 0.48289 24.907 0.21307 18.03-0.28109 24.368-2.0369 26.123-2.7336 2.7336-3.6543 2.79-7.6408 0.46804z"/>
 </g>
 <g fill="useCurrent" stroke="#666" stroke-width="1.713">
  <path d="m122.51 69.159c-2.1888-2.1888-2.6919-7.1395-2.6919-26.491 0-22.046 0.25238-23.935 3.426-25.633 2.4342-1.3027 4.4179-1.3027 6.852 0 3.183 1.7035 3.426 3.5867 3.426 26.552 0 22.685-0.27255 24.864-3.3134 26.491-4.2852 2.2934-4.5142 2.266-7.6988-0.91859z"/>
  <path d="m123.3 66.825c-0.97531-1.8224-1.7733-12.905-1.7733-24.629 0-16.857 0.53742-21.762 2.5695-23.448 2.05-1.7013 3.089-1.7013 5.139 0 3.3354 2.7682 3.7864 46.062 0.51391 49.335-2.8724 2.8724-4.398 2.5748-6.4492-1.2578z"/>
  <path d="m275.7 139.47c0-2.8524-1.1394-6.8128-2.532-8.801-2.3642-3.3754-2.2022-3.7515 2.4457-5.6767 2.7377-1.134 6.289-3.5108 7.8917-5.2818 2.8405-3.1387 2.9936-3.1188 6.067 0.78844 1.7342 2.2046 5.5506 4.4879 8.4809 5.074l5.3279 1.0656-3.5626 4.5291c-1.9594 2.491-3.5626 6.545-3.5626 9.0088 0 4.3333-0.33613 4.4798-10.278 4.4798h-10.278z"/>
  <path d="m390.9 48.726c0.019-3.7686 0.36981-5.1086 0.77955-2.9778s0.39419 5.2143-0.0346 6.852c-0.42875 1.6378-0.76399-0.10562-0.74498-3.8742z"/>
 </g>
</svg>
