<svg id="Capa_1" enable-background="new 0 0 512 512" height="512" viewBox="0 0 512 512" width="512" xmlns="http://www.w3.org/2000/svg"><g><path d="m256 81.267c13.27 0 24.066-10.796 24.066-24.066v-33.135c0-13.27-10.796-24.066-24.066-24.066-13.271 0-24.067 10.796-24.067 24.066v33.134c0 13.271 10.796 24.067 24.067 24.067zm-9.067-57.201c0-4.999 4.067-9.066 9.067-9.066 4.999 0 9.066 4.067 9.066 9.066v33.134c0 4.999-4.067 9.066-9.066 9.066-5 0-9.067-4.067-9.067-9.066z"/><path d="m256 430.733c-13.271 0-24.067 10.796-24.067 24.066v33.134c0 13.271 10.796 24.067 24.067 24.067 13.27 0 24.066-10.796 24.066-24.066v-33.134c0-13.271-10.796-24.067-24.066-24.067zm9.066 57.201c0 4.999-4.067 9.066-9.066 9.066-5 0-9.067-4.067-9.067-9.066v-33.134c0-4.999 4.067-9.066 9.067-9.066 4.999 0 9.066 4.067 9.066 9.066z"/><path d="m487.934 231.934h-33.134c-13.271 0-24.066 10.796-24.066 24.066 0 13.271 10.796 24.066 24.066 24.066h33.134c13.27 0 24.066-10.795 24.066-24.066 0-13.27-10.796-24.066-24.066-24.066zm0 33.132h-33.134c-4.999 0-9.066-4.067-9.066-9.066s4.067-9.066 9.066-9.066h33.134c4.999 0 9.066 4.067 9.066 9.066s-4.067 9.066-9.066 9.066z"/><path d="m81.267 256c0-13.27-10.796-24.066-24.066-24.066h-33.134c-13.271 0-24.067 10.796-24.067 24.066 0 13.271 10.796 24.066 24.067 24.066h33.133c13.27 0 24.067-10.795 24.067-24.066zm-66.267 0c0-4.999 4.067-9.066 9.067-9.066h33.133c4.999 0 9.066 4.067 9.066 9.066s-4.067 9.066-9.066 9.066h-33.133c-5 0-9.067-4.067-9.067-9.066z"/><path d="m256 99.4c-36.294 0-71.672 12.7-99.615 35.763-3.195 2.637-3.647 7.363-1.01 10.558 2.636 3.196 7.364 3.646 10.558 1.011 25.262-20.849 57.249-32.332 90.067-32.332 78.078 0 141.6 63.522 141.6 141.6s-63.522 141.6-141.6 141.6c-78.079 0-141.6-63.522-141.6-141.6 0-32.389 11.215-64.049 31.58-89.148 2.61-3.217 2.118-7.939-1.099-10.55-3.218-2.61-7.94-2.118-10.55 1.099-22.526 27.764-34.931 62.78-34.931 98.599 0 86.35 70.25 156.6 156.6 156.6s156.6-70.25 156.6-156.6-70.25-156.6-156.6-156.6z"/><path d="m396.573 139.482c6.162 0 12.325-2.346 17.018-7.037l23.429-23.429c9.383-9.384 9.383-24.652 0-34.036-9.384-9.383-24.65-9.383-34.036 0l-23.429 23.429c-9.383 9.384-9.383 24.652 0 34.036 4.692 4.692 10.855 7.037 17.018 7.037zm-6.411-30.465 23.429-23.429c1.768-1.768 4.089-2.651 6.41-2.651 2.322 0 4.643.884 6.411 2.651 3.535 3.534 3.535 9.287 0 12.821l-23.429 23.429c-3.535 3.536-9.286 3.534-12.821 0s-3.535-9.287 0-12.821z"/><path d="m98.41 379.555-23.429 23.429c-9.384 9.384-9.384 24.652-.001 34.035 4.545 4.546 10.589 7.05 17.018 7.05 6.428 0 12.472-2.504 17.018-7.049l23.429-23.429c9.384-9.384 9.384-24.652 0-34.036-9.384-9.383-24.652-9.383-34.035 0zm23.428 23.428-23.428 23.429c-1.712 1.713-3.989 2.656-6.411 2.656s-4.699-.943-6.411-2.656c-3.535-3.534-3.535-9.287 0-12.821l23.429-23.429c1.768-1.768 4.089-2.651 6.411-2.651s4.644.884 6.411 2.651c3.534 3.534 3.534 9.287-.001 12.821z"/><path d="m413.591 379.555c-9.386-9.383-24.652-9.382-34.036 0-9.383 9.384-9.383 24.652 0 34.036l23.429 23.429c4.692 4.691 10.855 7.037 17.018 7.037s12.326-2.346 17.018-7.037c9.383-9.384 9.383-24.652 0-34.036zm12.821 46.857c-3.535 3.534-9.286 3.536-12.821 0l-23.429-23.429c-3.535-3.534-3.535-9.287 0-12.821 1.768-1.768 4.089-2.651 6.411-2.651 2.321 0 4.643.884 6.41 2.651l23.429 23.429c3.535 3.534 3.535 9.287 0 12.821z"/><path d="m98.41 132.445c4.692 4.691 10.854 7.037 17.017 7.037s12.326-2.346 17.018-7.037c9.384-9.384 9.384-24.652 0-34.036l-23.429-23.429c-4.545-4.545-10.589-7.049-17.018-7.049s-12.473 2.504-17.017 7.049c-9.384 9.384-9.384 24.652 0 34.036zm-12.822-46.858c1.712-1.712 3.989-2.655 6.411-2.655s4.699.943 6.411 2.656l23.429 23.429c3.535 3.534 3.535 9.287 0 12.821-3.535 3.535-9.287 3.535-12.822 0l-23.43-23.429c-3.535-3.534-3.535-9.287.001-12.822z"/><path d="m172.995 75.211c1.196 2.889 3.989 4.632 6.932 4.632.957 0 1.929-.185 2.867-.573 3.827-1.585 5.644-5.972 4.059-9.799l-6.34-15.306c-1.585-3.827-5.973-5.642-9.799-4.059-3.827 1.585-5.644 5.972-4.059 9.799z"/><path d="m339.008 436.806c-1.585-3.827-5.972-5.645-9.799-4.059-3.827 1.585-5.645 5.972-4.059 9.799l6.34 15.306c1.196 2.889 3.988 4.632 6.932 4.632.956 0 1.929-.185 2.867-.573 3.827-1.585 5.645-5.972 4.059-9.799z"/><path d="m54.17 180.531 15.306 6.34c.938.39 1.911.573 2.867.573 2.943 0 5.736-1.744 6.932-4.632 1.585-3.827-.232-8.214-4.059-9.799l-15.306-6.34c-3.826-1.589-8.214.232-9.799 4.059-1.585 3.828.233 8.214 4.059 9.799z"/><path d="m457.856 331.509-15.306-6.34c-3.824-1.587-8.213.232-9.799 4.059s.231 8.214 4.058 9.799l15.306 6.34c.938.39 1.91.573 2.867.573 2.943 0 5.735-1.744 6.932-4.632 1.587-3.828-.23-8.214-4.058-9.799z"/><path d="m79.292 329.228c-1.586-3.827-5.973-5.643-9.799-4.059l-15.306 6.34c-3.827 1.585-5.644 5.972-4.059 9.799 1.196 2.889 3.989 4.632 6.932 4.632.957 0 1.929-.185 2.867-.573l15.306-6.34c3.827-1.586 5.644-5.972 4.059-9.799z"/><path d="m432.769 182.813c1.196 2.889 3.988 4.632 6.932 4.632.956 0 1.929-.185 2.867-.573l15.306-6.34c3.827-1.585 5.645-5.972 4.059-9.799-1.585-3.827-5.973-5.644-9.799-4.059l-15.306 6.34c-3.828 1.585-5.645 5.971-4.059 9.799z"/><path d="m182.834 432.747c-3.827-1.589-8.215.232-9.799 4.059l-6.34 15.306c-1.585 3.827.232 8.214 4.059 9.799.939.39 1.911.573 2.867.573 2.943 0 5.736-1.744 6.932-4.632l6.34-15.306c1.585-3.827-.232-8.214-4.059-9.799z"/><path d="m329.249 79.27c.939.39 1.91.573 2.867.573 2.943 0 5.735-1.744 6.932-4.632l6.34-15.306c1.586-3.827-.231-8.214-4.059-9.799-3.823-1.587-8.213.233-9.799 4.059l-6.34 15.306c-1.586 3.827.232 8.214 4.059 9.799z"/></g></svg>