<svg id="Capa_1" enable-background="new 0 0 512 512" height="512" viewBox="0 0 512 512" width="512" xmlns="http://www.w3.org/2000/svg"><g><g><path d="m504.322 61.342h-22.377c-15.783 0-28.624 12.84-28.624 28.623v23.798h-19.911c-4.13 0-7.478 3.348-7.478 7.478s3.347 7.478 7.478 7.478h19.912v45.424h-63.134c-7.566 0-14.942 3.218-20.235 8.828-8.14 8.63-19.153 13.382-31.008 13.382s-22.868-4.752-31.009-13.383c-5.293-5.61-12.668-8.827-20.235-8.827h-29.498c-8.233 0-14.931 6.698-14.931 14.931v17.36c0 2.532-2.06 4.592-4.593 4.592h-36.239c-2.532 0-4.593-2.06-4.593-4.592v-46.266c0-17.341 14.108-31.449 31.449-31.449h62.79c6.971 0 13.589-2.46 18.635-6.927 7.791-6.896 17.814-10.695 28.222-10.695s20.431 3.798 28.223 10.695c5.045 4.466 11.663 6.926 18.635 6.926h12.6c4.13 0 7.478-3.348 7.478-7.478s-3.347-7.478-7.478-7.478h-12.6c-3.316 0-6.414-1.125-8.723-3.169-5.138-4.548-10.997-8.09-17.28-10.534v-30.153h15.558c11.873 0 21.532-9.66 21.532-21.533s-9.66-21.533-21.532-21.533h-5.566c-2.362-15.183-15.524-26.84-31.359-26.84-15.836 0-28.998 11.657-31.36 26.84h-5.566c-11.873 0-21.532 9.66-21.532 21.533s9.66 21.533 21.532 21.533h15.558v30.57c-5.894 2.424-11.397 5.819-16.253 10.118-2.309 2.044-5.407 3.17-8.723 3.17h-62.79c-25.588 0-46.405 20.817-46.405 46.404v46.266c0 10.778 8.77 19.548 19.548 19.548h36.239c10.779 0 19.548-8.769 19.548-19.548l-.024-17.336h29.498c3.467 0 6.877 1.507 9.356 4.135 10.837 11.487 26.104 18.075 41.888 18.075s31.051-6.588 41.887-18.074c2.48-2.628 5.89-4.135 9.357-4.135h63.134v23.798c0 15.783 12.841 28.624 28.624 28.624h22.377c4.13 0 7.478-3.348 7.478-7.478v-165.223c-.002-4.13-3.35-7.478-7.48-7.478zm-159.479 35.114c-1.952-.201-3.919-.313-5.898-.313-2.327 0-4.638.154-6.926.431v-26.668h12.824zm-6.412-81.501c7.551 0 13.952 5.013 16.054 11.885h-32.108c2.101-6.872 8.504-11.885 16.054-11.885zm-36.926 39.996c-3.627 0-6.577-2.951-6.577-6.578s2.95-6.578 6.577-6.578h73.851c3.627 0 6.577 2.951 6.577 6.578s-2.95 6.578-6.577 6.578zm195.34 171.613h-14.899c-7.537 0-13.668-6.132-13.668-13.668v-122.93c0-7.537 6.131-13.668 13.668-13.668h14.899z"/><path d="m219.506 323.819h.129c9.79 0 18.996-3.803 25.934-10.716 6.968-6.945 10.806-16.187 10.806-26.025 0-8.091-2.58-15.766-7.461-22.196-.057-.076-.117-.151-.177-.225l-21.869-26.626c-1.786-2.173-4.421-3.419-7.233-3.419-.001 0-.002 0-.003 0-2.812.001-5.448 1.248-7.23 3.42l-21.869 26.625c-.06.074-.12.149-.177.225-4.88 6.429-7.46 14.103-7.461 22.195-.004 20.189 16.421 36.673 36.611 36.742zm-17.32-49.789 17.448-21.243 17.448 21.242c2.838 3.787 4.338 8.296 4.338 13.049 0 5.833-2.275 11.314-6.408 15.432-4.114 4.1-9.571 6.354-15.378 6.354-.024 0-.052 0-.076 0-12.175-.042-21.711-9.612-21.71-21.786.001-4.754 1.5-9.263 4.338-13.048z"/><path d="m352.29 346.797c-.072.027-.144.056-.215.085l-12.646 5.214c.034-3.185-.556-6.377-1.777-9.427-4.745-11.85-18.012-18.168-30.2-14.384-.142.044-74.529 28.102-74.529 28.102-.883-4.007-2.641-7.818-5.219-11.126-8.124-10.426-22.6-13.703-34.423-7.791l-14.659 7.33c-3.693 1.847-5.191 6.339-3.344 10.032 1.847 3.695 6.339 5.193 10.033 3.344l14.659-7.33c5.473-2.737 12.176-1.219 15.937 3.607 2.309 2.962 3.196 6.626 2.499 10.316-.696 3.69-2.859 6.778-6.087 8.695l-71.457 42.427c-3.551 2.108-4.72 6.696-2.612 10.247 1.398 2.354 3.885 3.661 6.437 3.661 1.298 0 2.613-.338 3.811-1.049l27.954-16.597h47.046c5.824 0 11.541-1.04 16.99-3.092.072-.027.144-.055.215-.085l116.953-48.22c6.435-2.366 13.678.651 16.52 6.906 2.976 6.545.241 14.135-6.224 17.279-13.108 6.375-47.372 25.783-83.648 46.33-40.678 23.04-82.741 46.865-95.516 52.602-20.786 9.333-41.681 4.623-63.802-.363-13.432-3.028-27.32-6.159-41.605-6.159h-23.375v-79.058c.474-.325 22.586-24.035 46.635-20.799l24.973 5.639c1.683.38 3.447.167 4.992-.606l18.128-9.064c3.693-1.847 5.191-6.339 3.344-10.032-1.846-3.694-6.336-5.191-10.032-3.344l-15.741 7.871-22.676-5.121c-.196-.044-.392-.08-.59-.109-20.62-2.946-38.553 7.461-49.033 15.602v-14.19c0-6.947-5.651-12.598-12.597-12.598h-34.611c-6.947 0-12.598 5.651-12.598 12.598v135.262c0 6.946 5.651 12.598 12.598 12.598h34.611c6.946 0 12.597-5.652 12.597-12.598v-7.095h23.375c12.621 0 25.102 2.814 38.316 5.793 13.388 3.018 27.031 6.095 40.972 6.094 10.572 0 21.318-1.771 32.245-6.677 13.412-6.023 55.784-30.023 96.76-53.232 36.065-20.428 70.132-39.723 82.818-45.893 13.813-6.718 19.654-22.934 13.298-36.916-6.102-13.429-21.7-19.875-35.5-14.679zm-28.64 8.922c-.885 2.024-2.397 3.64-4.314 4.662l-84.222 34.725c-3.728 1.39-7.636 2.095-11.618 2.095h-21.858l18.315-10.874c5.253-3.119 9.285-7.856 11.558-13.421l80.557-30.391c4.746-1.369 9.855 1.112 11.698 5.715.974 2.43.932 5.09-.116 7.489zm-278.599 141.326h-29.895v-130.547h29.895z"/></g></g></svg>