<?xml version="1.0" standalone="no"?>
<!DOCTYPE svg PUBLIC "-//W3C//DTD SVG 20010904//EN"
 "http://www.w3.org/TR/2001/REC-SVG-20010904/DTD/svg10.dtd">
<svg version="1.0" xmlns="http://www.w3.org/2000/svg"
 width="260.000000pt" height="260.000000pt" viewBox="0 0 260.000000 260.000000"
 preserveAspectRatio="xMidYMid meet">
<metadata>
Created by potrace 1.11, written by Peter Selinger 2001-2013
</metadata>
<g transform="translate(0.000000,260.000000) scale(0.100000,-0.100000)"
fill="#000000" stroke="none">
<path d="M1200 2504 c-307 -39 -536 -148 -741 -353 -239 -240 -354 -520 -352
-861 1 -255 66 -466 210 -683 58 -87 214 -251 302 -318 86 -65 237 -142 350
-179 305 -99 637 -71 929 80 124 64 206 126 313 237 162 168 261 354 316 595
23 102 23 374 0 476 -116 507 -494 886 -986 987 -75 16 -278 27 -341 19z m720
-469 c0 -8 -9 -23 -21 -34 l-21 -19 21 -7 c25 -8 26 -17 6 -55 -10 -20 -27
-32 -52 -39 -49 -14 -54 -6 -9 15 39 19 44 29 21 38 -25 9 -17 48 17 83 36 38
38 38 38 18z m-277 -66 c-28 -51 -62 -80 -150 -129 l-43 -24 0 -105 c0 -59 -4
-122 -10 -140 -23 -82 -103 -121 -247 -121 l-83 0 0 167 0 166 31 49 c17 27
34 46 37 44 3 -3 5 -80 4 -171 l0 -165 54 0 c30 0 75 5 98 11 l44 11 -1 118
c0 163 10 180 164 272 62 37 117 68 121 68 5 0 -4 -23 -19 -51z m226 -497
c-17 -35 -33 -62 -34 -60 -2 2 -5 87 -7 188 l-3 185 35 50 35 50 3 -175 2
-175 -31 -63z m-139 318 c0 -9 -6 -24 -12 -33 -12 -15 -15 -15 -37 2 -23 17
-23 19 -6 50 16 32 17 32 36 15 10 -9 19 -25 19 -34z m-935 -59 c3 -5 -2 -28
-11 -50 -14 -36 -19 -40 -43 -35 -18 4 -32 0 -40 -10 -11 -12 -6 -19 28 -41
46 -28 50 -45 25 -103 -42 -103 -173 -173 -257 -139 -50 22 -72 59 -72 126 1
55 22 151 34 151 3 0 6 -36 6 -81 0 -73 2 -83 24 -100 13 -11 39 -19 60 -19
43 0 145 48 149 70 1 8 -11 23 -28 32 -18 10 -30 25 -30 38 0 71 128 204 155
161z m981 -76 c21 -57 9 -106 -39 -156 -31 -32 -131 -78 -144 -66 -3 3 -1 23
4 44 8 34 13 39 68 58 32 12 61 27 63 33 2 6 -3 25 -11 41 -13 26 -13 32 5 60
11 17 24 31 28 31 5 0 16 -20 26 -45z m-710 -58 c-20 -70 -53 -116 -98 -139
-43 -23 -148 -37 -148 -20 0 6 50 48 110 93 65 47 117 94 127 113 23 43 28 17
9 -47z m-566 -519 c0 -16 -3 -19 -11 -11 -6 6 -8 16 -5 22 11 17 16 13 16 -11z
m481 -6 c-6 -11 -26 -29 -46 -41 -33 -19 -35 -23 -35 -75 0 -47 -4 -57 -26
-75 -14 -11 -46 -23 -70 -27 -30 -4 -54 -16 -73 -35 -28 -27 -40 -29 -91 -12
-13 4 -13 5 0 12 8 5 32 11 52 15 23 4 44 16 56 33 15 21 31 28 68 32 l49 6 3
55 c4 62 10 73 72 111 49 31 57 31 41 1z m579 8 c0 -13 -39 -48 -62 -56 -15
-4 -18 -16 -18 -65 0 -59 0 -59 29 -59 17 0 33 5 37 11 4 8 9 8 17 0 15 -15
89 -14 124 1 27 11 27 12 6 15 -26 5 -29 21 -10 47 13 17 14 17 30 1 48 -48
-14 -115 -107 -115 -26 0 -46 -5 -49 -12 -3 -10 -7 -10 -18 -1 -17 14 -99 18
-151 8 -55 -11 -98 9 -98 46 0 15 5 31 10 34 6 3 10 -3 10 -13 0 -23 18 -32
63 -32 65 0 73 7 75 63 3 72 6 79 54 109 47 29 58 33 58 18z m419 -141 l-11
-22 30 21 c16 12 40 23 53 24 21 3 24 -1 24 -29 0 -31 2 -33 32 -33 27 0 33 4
33 22 0 27 27 58 52 58 13 0 18 -6 16 -17 -2 -10 -12 -17 -21 -17 -12 1 -17
-4 -15 -15 3 -11 13 -15 31 -14 28 2 32 -4 19 -23 -17 -26 -192 -47 -192 -23
0 5 -4 8 -9 4 -6 -3 -47 -10 -93 -16 -71 -9 -86 -14 -104 -36 -15 -19 -29 -26
-54 -25 -54 1 -56 18 -4 31 28 7 58 24 74 42 23 24 36 29 74 29 l46 0 0 78 c0
49 5 83 13 91 10 10 13 0 15 -48 2 -33 -2 -70 -9 -82z m-1463 98 c13 17 13 17
14 -2 0 -29 -19 -45 -52 -45 -24 0 -28 4 -28 28 0 21 2 24 10 12 9 -13 12 -12
22 5 12 19 13 19 16 2 4 -18 4 -18 18 0z m1208 5 c2 -4 1 -14 -4 -21 -10 -17
-31 -5 -23 14 6 16 19 20 27 7z m-1095 -164 c-19 -47 -29 -32 -29 45 0 53 5
79 18 97 17 25 17 25 20 -44 2 -38 -2 -82 -9 -98z m433 87 c-12 -22 -27 -2
-18 22 5 12 10 13 17 6 7 -7 8 -17 1 -28z m335 -1 c-2 -30 -7 -38 -27 -45 -21
-8 -22 -7 -9 3 9 7 14 18 12 25 -4 11 13 53 21 53 2 0 3 -16 3 -36z m-881 -90
c9 3 20 6 25 6 5 0 9 15 9 33 0 17 7 41 15 51 14 18 15 15 15 -36 0 -77 -17
-91 -120 -94 -71 -2 -80 -1 -80 15 0 14 -6 17 -30 13 -47 -7 -34 45 19 72 34
18 41 13 41 -31 0 -35 2 -36 38 -27 18 5 22 13 22 43 0 20 6 43 13 50 10 10
13 1 15 -44 2 -46 6 -56 18 -51z m704 60 c0 -33 -42 -74 -77 -75 -43 -2 -67 2
-74 12 -3 5 -14 0 -24 -11 -18 -20 -41 -25 -69 -14 -27 10 -18 21 29 33 25 6
51 20 57 31 15 24 28 26 28 4 0 -12 10 -14 47 -12 39 2 48 7 51 23 6 35 12 46
22 40 5 -3 10 -17 10 -31z m-60 -110 c0 -14 -12 -19 -23 -8 -9 9 4 35 14 28 5
-3 9 -12 9 -20z"/>
<path d="M2000 915 c-10 -12 -7 -13 21 -5 42 12 49 20 17 20 -14 0 -31 -7 -38
-15z"/>
<path d="M360 900 c-13 -8 -12 -10 3 -10 9 0 17 5 17 10 0 12 -1 12 -20 0z"/>
</g>
</svg>
