<?xml version="1.0" standalone="no"?>
<!DOCTYPE svg PUBLIC "-//W3C//DTD SVG 20010904//EN"
 "http://www.w3.org/TR/2001/REC-SVG-20010904/DTD/svg10.dtd">
<svg version="1.0" xmlns="http://www.w3.org/2000/svg"
 width="1024.000000pt" height="1024.000000pt" viewBox="0 0 1024.000000 1024.000000"
 preserveAspectRatio="xMidYMid meet">
<metadata>
Created by potrace 1.11, written by Peter Selinger 2001-2013
</metadata>
<g transform="translate(0.000000,1024.000000) scale(0.100000,-0.100000)"
fill="#000000" stroke="none">
<path d="M4619 9904 c-916 -83 -1782 -429 -2499 -999 -1031 -819 -1665 -2011
-1770 -3329 -21 -274 -11 -675 26 -961 238 -1854 1571 -3402 3374 -3918 825
-237 1755 -237 2580 0 935 267 1763 818 2375 1578 598 744 949 1629 1025 2589
21 274 11 675 -26 961 -199 1555 -1178 2921 -2589 3615 -534 262 -1074 412
-1671 465 -206 18 -621 18 -825 -1z m3411 -1891 c0 -5 -12 -45 -26 -91 -23
-71 -31 -85 -58 -99 -49 -25 -108 -75 -99 -84 4 -4 37 -15 73 -24 36 -9 73
-24 83 -32 28 -26 21 -81 -22 -169 -45 -93 -89 -147 -140 -173 -46 -23 -149
-49 -230 -57 -87 -10 -79 12 17 47 88 33 212 102 247 139 l26 27 -43 12 c-63
19 -116 48 -128 70 -5 11 -10 35 -10 54 0 95 128 277 254 361 40 27 56 32 56
19z m-1132 -112 c-2 -10 -55 -118 -118 -240 l-115 -222 -357 -215 -357 -214
-3 -503 c-4 -552 -3 -538 -70 -672 -97 -192 -221 -285 -473 -354 -205 -57
-256 -63 -592 -68 l-313 -5 0 638 c1 692 6 807 43 889 19 39 219 348 244 375
19 20 23 -101 23 -769 l0 -744 233 6 c198 4 250 9 354 31 118 25 225 59 250
78 9 7 12 133 13 513 0 278 3 512 7 522 11 29 149 279 173 312 12 17 42 45 68
63 95 65 967 597 980 598 8 0 12 -8 10 -19z m1037 -614 c4 -13 4 -351 2 -753
-4 -801 -4 -800 -66 -920 -58 -113 -206 -358 -219 -362 -10 -3 -12 155 -10
810 l3 813 22 49 c26 55 244 385 255 386 4 0 10 -10 13 -23z m-794 -238 c49
-45 89 -86 89 -91 0 -18 -112 -268 -120 -268 -10 0 -185 158 -185 168 0 10
118 272 123 272 3 0 44 -36 93 -81z m-4061 -379 c43 -43 15 -183 -63 -323 -21
-38 -45 -71 -54 -74 -8 -3 -32 4 -53 16 -46 26 -102 27 -155 2 -50 -22 -105
-84 -105 -116 0 -32 61 -77 204 -151 168 -87 175 -99 136 -244 -57 -208 -139
-357 -271 -489 -188 -191 -435 -306 -679 -318 -187 -9 -286 24 -389 131 -93
98 -134 195 -151 367 -18 173 25 454 99 650 21 56 55 98 68 85 4 -3 -4 -82
-17 -175 -56 -410 15 -624 229 -688 78 -24 233 -21 333 5 205 55 419 182 498
297 l30 43 -126 68 c-147 79 -174 106 -174 171 0 156 131 402 314 587 96 98
151 139 213 162 54 19 90 17 113 -6z m4278 -243 c95 -197 119 -327 82 -448
-62 -206 -203 -394 -360 -482 -89 -49 -245 -111 -360 -142 -120 -32 -132 -32
-125 -2 48 213 78 314 98 334 13 12 72 37 141 58 146 45 320 114 374 149 37
23 40 28 33 54 -12 41 -79 191 -107 239 -13 23 -24 46 -24 52 0 6 42 74 92
150 68 102 96 137 105 130 6 -6 29 -47 51 -92z m-3021 -73 c20 -53 -69 -388
-146 -549 -84 -176 -158 -257 -301 -333 -128 -68 -349 -124 -550 -138 -75 -6
-88 -4 -109 13 -17 14 -22 25 -17 41 4 12 156 132 374 293 370 275 526 396
595 463 38 38 84 119 106 189 13 38 37 49 48 21z m-2412 -2284 c-3 -19 -11
-48 -17 -64 -12 -29 -12 -28 -24 30 -11 54 -10 62 9 93 l21 35 8 -30 c5 -16 6
-45 3 -64z m1914 -33 l-43 -86 -137 -81 -138 -81 -3 -202 c-3 -192 -4 -204
-28 -251 -55 -108 -148 -146 -376 -155 -110 -4 -156 -10 -168 -20 -10 -8 -40
-50 -68 -93 -59 -91 -88 -115 -163 -130 -58 -13 -127 -4 -227 28 -51 17 -63
40 -25 49 12 3 94 21 182 40 178 40 174 37 260 152 77 104 90 109 247 115 84
3 156 12 196 23 l62 18 0 196 0 196 39 69 38 69 194 118 c106 65 195 116 197
115 2 -2 -16 -42 -39 -89z m2299 -1 l-43 -86 -137 -82 -138 -83 0 -234 0 -234
98 5 c112 7 161 23 193 67 12 17 26 31 31 31 4 0 17 -18 27 -39 26 -51 58 -61
185 -61 131 0 213 14 302 51 99 41 110 50 94 78 -12 23 -18 23 -75 7 -35 -11
-48 7 -46 65 1 56 33 135 62 152 52 31 120 -46 127 -144 9 -123 -43 -208 -167
-273 -108 -56 -203 -77 -349 -75 l-123 1 -31 -43 c-29 -40 -32 -41 -44 -24 -8
10 -21 39 -31 64 -9 25 -17 47 -18 48 -1 2 -21 -7 -46 -19 -37 -19 -65 -23
-171 -26 l-128 -4 0 31 c0 17 -2 31 -5 31 -3 0 -24 -9 -46 -21 -141 -71 -406
-80 -500 -16 -56 38 -72 69 -72 137 1 44 8 75 27 114 26 54 70 105 51 61 -4
-11 -13 -42 -19 -68 -14 -64 3 -94 69 -127 47 -23 60 -25 195 -25 124 0 156 4
223 24 l77 24 0 202 0 202 31 59 c17 32 41 69 52 81 23 22 380 244 385 238 2
-1 -16 -42 -40 -89z m1730 -256 l-3 -215 -37 -65 c-72 -127 -68 -137 -65 161
l2 265 50 77 50 76 3 -42 c2 -23 2 -139 0 -257z m-6078 134 c-26 -68 -4 -128
45 -122 27 3 30 7 35 48 3 25 12 56 20 70 14 24 15 22 18 -42 3 -73 7 -77 56
-58 19 7 26 17 26 37 0 16 9 42 20 58 l20 30 0 -72 c0 -65 -3 -76 -27 -103
-30 -32 -121 -59 -134 -38 -4 7 -13 6 -27 -1 -30 -16 -57 -14 -82 7 -30 24
-29 92 1 162 22 50 47 72 29 24z m5005 -14 l28 -29 -17 -46 c-10 -24 -21 -47
-24 -49 -4 -2 -22 9 -39 24 l-32 29 21 51 c11 27 24 50 27 50 4 0 20 -13 36
-30z m-4347 -385 l-3 -240 -43 -72 c-24 -40 -48 -75 -53 -79 -12 -7 -12 561 1
605 5 18 29 63 52 99 l43 66 3 -69 c2 -39 2 -178 0 -310z m3072 186 c-4 -16
-23 -43 -42 -59 l-33 -30 43 -17 c23 -10 42 -24 42 -31 0 -8 -11 -36 -24 -63
-27 -52 -60 -74 -131 -85 -38 -6 -37 -5 29 32 38 21 71 42 73 48 2 5 -11 14
-29 19 -47 15 -55 35 -33 90 17 45 84 125 104 125 6 0 6 -12 1 -29z m-1316
-30 c3 -5 -4 -31 -16 -59 l-21 -50 -34 25 c-39 30 -40 40 -13 94 l21 40 29
-21 c16 -12 32 -25 34 -29z m-2256 -451 c35 0 84 9 165 31 l37 10 0 121 0 122
48 78 47 78 3 -167 c3 -197 1 -215 -37 -275 -51 -80 -162 -128 -329 -143 l-82
-7 0 37 c0 31 -3 36 -17 30 -90 -36 -224 -64 -310 -65 -10 0 -13 24 -13 89 l0
89 -34 -34 c-30 -30 -40 -34 -89 -34 -31 0 -68 5 -83 10 -24 10 -26 14 -21 50
3 22 19 69 35 104 25 53 40 71 84 100 55 37 152 76 188 76 19 0 20 -6 20 -150
l0 -150 53 0 c51 0 106 11 159 31 l26 11 4 126 3 127 50 72 50 73 3 -220 2
-220 38 0z m6781 426 c52 -28 53 -37 9 -95 l-40 -53 -28 27 c-15 14 -40 27
-56 28 -27 2 -29 0 -26 -33 2 -19 14 -59 28 -89 l24 -54 53 8 c28 4 78 10 109
14 l57 7 -25 -40 c-14 -23 -30 -51 -36 -63 -7 -14 -20 -23 -33 -23 -12 0 -73
-13 -136 -30 -218 -57 -303 -70 -445 -70 -148 0 -150 1 -118 61 8 17 14 33 11
35 -2 2 -29 -5 -60 -15 -137 -47 -368 -81 -556 -81 -95 0 -142 -4 -153 -12 -9
-7 -41 -51 -71 -98 -64 -98 -106 -128 -190 -137 -83 -8 -274 44 -250 68 6 6
91 29 189 50 109 24 185 46 197 56 11 10 45 53 76 97 73 101 100 116 223 117
51 0 129 4 174 7 79 7 82 8 139 57 174 151 278 215 353 215 48 0 88 -29 97
-70 7 -32 -19 -102 -59 -154 -46 -63 -53 -60 110 -53 170 7 230 19 218 45 -4
9 -9 46 -11 82 -5 62 -3 67 33 116 66 89 126 114 193 80z m-3943 -124 c24 -83
1 -156 -74 -235 -74 -78 -171 -107 -356 -107 l-126 0 -10 26 c-6 15 -7 48 -4
75 4 27 4 49 2 49 -3 0 -21 -26 -41 -59 -42 -67 -105 -128 -143 -137 -63 -16
-254 22 -254 51 0 8 16 18 38 24 20 5 84 22 142 37 176 45 214 71 268 181 15
29 30 53 34 53 4 0 8 -18 8 -40 0 -22 6 -56 14 -75 18 -43 51 -50 191 -42 94
5 215 34 238 57 5 4 -3 36 -16 70 l-26 62 37 50 c34 45 38 47 50 31 7 -10 20
-42 28 -71z m-210 -446 c3 -7 -5 -34 -16 -61 l-21 -48 -27 24 c-15 13 -31 27
-35 30 -5 4 1 30 13 58 l22 51 30 -21 c16 -12 32 -27 34 -33z"/>
<path d="M1411 3379 c-38 -15 -82 -50 -76 -60 7 -10 95 -12 119 -3 10 4 16 18
16 40 0 37 -13 42 -59 23z"/>
<path d="M7995 3466 c-27 -12 -72 -44 -100 -69 l-50 -46 31 -1 c63 0 284 69
284 89 0 4 -10 17 -23 29 -31 29 -78 28 -142 -2z"/>
</g>
</svg>
